<svg width="16" height="16" viewBox="0 0 16 16" fill="none" xmlns="http://www.w3.org/2000/svg">
<path d="M7.31357 11.8278C6.72826 10.8727 5.99965 10.3332 5.51008 10.3211C5.02051 10.3089 4.70994 9.9372 4.70994 9.19757V2.73752C4.70994 1.99788 5.06887 1.33316 5.77679 1.33316H12.8448C13.422 1.33316 14.0256 1.8752 14.1784 2.45665L15.2453 8.63582C15.4684 9.48662 15.2888 10.3168 14.4451 10.3211H10.5777C10.5777 10.3211 11.2325 11.868 11.3829 12.7086C11.817 15.1464 9.85593 16.3776 8.71065 15.0959C8.48789 14.8471 8.37929 14.4826 8.23938 14.0129C8.06765 13.4363 7.84873 12.7014 7.31357 11.8278ZM1.77604 10.321C1.40785 10.321 1.10938 10.0225 1.10938 9.65434V1.99978C1.10938 1.63159 1.40785 1.33311 1.77604 1.33311H3.33301C3.7012 1.33311 3.99967 1.63159 3.99967 1.99978V9.65434C3.99967 10.0225 3.7012 10.321 3.33301 10.321H1.77604Z" fill="black" fill-opacity="0.3"/>
<path d="M7.31357 11.8278C6.72826 10.8727 5.99965 10.3332 5.51008 10.3211C5.02051 10.3089 4.70994 9.9372 4.70994 9.19757V2.73752C4.70994 1.99788 5.06887 1.33316 5.77679 1.33316H12.8448C13.422 1.33316 14.0256 1.8752 14.1784 2.45665L15.2453 8.63582C15.4684 9.48662 15.2888 10.3168 14.4451 10.3211H10.5777C10.5777 10.3211 11.2325 11.868 11.3829 12.7086C11.817 15.1464 9.85593 16.3776 8.71065 15.0959C8.48789 14.8471 8.37929 14.4826 8.23938 14.0129C8.06765 13.4363 7.84873 12.7014 7.31357 11.8278ZM1.77604 10.321C1.40785 10.321 1.10938 10.0225 1.10938 9.65434V1.99978C1.10938 1.63159 1.40785 1.33311 1.77604 1.33311H3.33301C3.7012 1.33311 3.99967 1.63159 3.99967 1.99978V9.65434C3.99967 10.0225 3.7012 10.321 3.33301 10.321H1.77604Z" fill="black" fill-opacity="0.3"/>
</svg>
