<?xml version="1.0" encoding="utf-8"?>
<!-- Generator: Adobe Illustrator 25.0.1, SVG Export Plug-In . SVG Version: 6.00 Build 0)  -->
<svg version="1.1" id="Layer_1" xmlns="http://www.w3.org/2000/svg" xmlns:xlink="http://www.w3.org/1999/xlink" x="0px" y="0px"
	 viewBox="0 0 1366 768" style="enable-background:new 0 0 1366 768;" xml:space="preserve">
<style type="text/css">
	.st0{fill:#FFFFFF;}
	.st1{fill:none;stroke:#000000;stroke-width:0;stroke-linecap:round;stroke-linejoin:round;}
	.st2{fill:#FFDA00;}
	.st3{fill:#231F20;}
	.st4{fill:#F1F1F2;}
	.st5{fill:none;stroke:#231F20;stroke-linecap:round;stroke-linejoin:round;stroke-miterlimit:10;}
</style>
<text transform="matrix(1 0 0 1 198.3203 -134.2246)" style="font-family:'No.SevenRegular'; font-size:180.5405px;">Rent   tech</text>
<g>
	<path d="M1551.94,174.8c6.32,18.96,13.54,49.47,20.76,50.01c7.04,0.72,18.42-10.29,22.93-22.93h0.36c3.25-1.26,6.14,1.08,3.79,6.86
		c-6.86,17.69-23.47,29.97-35.75,28.35c-13.18-1.62-25.28-33.04-33.4-56.87c-3.07,0.36-5.96,0.72-8.85,0.9
		c-0.54,4.7-1.08,9.57-1.44,15.17c-3.79,40.8-21.12,53.08-32.32,43.15c0,0,2.53-2.89,4.33-8.85
		c14.62-44.23,10.11-101.28,22.75-116.63c13-15.89,29.25-4.87,29.25,2.53c0,0-13.36,0.54-21.3,54.52c25.82-0.9,47.3-19.68,52-37.37
		c5.78-23.11-12.46-33.4-37.19-33.4c-37.37,0-58.68,18.6-65,37.37c-6.32,18.42,9.93,27.26,21.3,22.39c0,0,4.88,23.65-15.35,23.47
		c-18.78-0.36-33.76-18.96-22.39-44.96c12.28-28.35,46.4-49.65,89.19-50.91c34.48-1.08,60.48,12.1,53.44,41.71
		C1594.01,150.97,1574.69,166.68,1551.94,174.8z"/>
	<path d="M1623.61,205.49c20.04-8.67,21.12-42.97,13.9-44.95c-7.4-2.17-14.99,16.07-18.23,28.53c-3.97,14.99-2.89,35.39,11.37,38.27
		c15.17,3.07,33.22-9.21,38.64-24.19c0,0,0-0.18,0.18-0.18c3.43-1.08,6.14,1.26,3.97,7.04c-7.4,18.78-30.33,32.86-53.8,27.8
		c-13.72-3.07-28.71-20.4-24.01-46.04c4.87-25.64,23.65-42.97,47.12-38.82c33.4,6.14,23.65,45.14-19.5,59.4
		C1623.25,212.36,1616.75,208.56,1623.61,205.49z"/>
	<path d="M1675.61,151.15c12.1-7.94,23.29,4.33,23.29,4.33s-3.97,3.07-7.4,24.55c13.18-24.01,26-33.4,37.37-29.43
		c8.49,2.89,9.39,17.33,3.43,42.61c-6.86,28.89-9.57,45.5-5.24,47.12c4.15,1.44,8.85-2.89,12.64-13.36l0.18-0.18
		c3.25-1.26,6.14,1.26,4.15,6.86c-6.86,16.97-19.32,23.11-29.61,18.6c-10.11-4.33-13.54-22.21-4.88-55.43
		c5.78-21.48,5.6-28.89,1.81-30.33c-3.25-0.9-11.37,7.4-22.57,33.94c-4.15,34.3-9.57,39.36-22.75,34.3c0,0-0.72-2.35-0.72-8.48
		C1665.14,184.55,1664.23,158.73,1675.61,151.15z"/>
	<path d="M1783.03,132.38c7.04,1.26,13.72,1.99,19.68,1.08l2.35-0.36c8.12,3.61,7.4,12.64-4.51,14.98c-5.24,1.08-13.18,0-22.21-1.62
		c-2.35,8.49-4.51,18.42-6.5,31.23c-2.89,17.69-4.33,46.22,0.72,48.21c5.42,1.99,13-9.93,17.69-22.75l0.18-0.18
		c3.25-1.08,6.14,1.45,3.97,7.04c-6.86,17.33-21.3,31.6-33.4,26.18c-11.55-5.06-14.44-34.3-11.74-58.5
		c1.26-12.64,3.07-25.82,5.78-36.47c-18.42-4.33-37.73-8.67-51.27-6.5c-19.14,2.89-25.28,11.92-25.28,11.92
		c-8.85-9.21-7.22-31.23,16.97-34.66c17.87-2.53,41.71,6.86,64.45,14.26c1.62-3.97,3.79-7.04,5.78-9.03
		c13.54-12.46,24.73-0.72,24.73-0.72S1787,121.72,1783.03,132.38z"/>
	<path d="M1880.97,116.49c0,0,11.2-11.74,24.73,0.72c1.99,1.99,4.15,5.06,5.78,9.03c22.75-7.4,46.58-16.79,64.45-14.26
		c24.19,3.43,25.82,25.46,16.97,34.66c0,0-6.14-9.03-25.28-11.92c-13.54-2.17-32.86,2.17-51.27,6.5
		c2.71,10.65,4.51,23.83,5.78,36.47c2.71,24.19-0.18,53.44-11.73,58.5c-12.1,5.42-26.54-8.85-33.4-26.18
		c-2.17-5.6,0.72-8.12,3.97-7.04l0.18,0.18c4.69,12.82,12.28,24.73,17.69,22.75c5.05-1.99,3.61-30.51,0.72-48.21
		c-1.99-12.82-4.15-22.75-6.5-31.23c-9.03,1.62-16.97,2.71-22.21,1.62c-11.92-2.35-12.64-11.37-4.51-14.98l2.35,0.36
		c5.96,0.9,12.64,0.18,19.68-1.08C1884.41,121.72,1880.97,116.49,1880.97,116.49z"/>
	<path d="M1963.78,205.49c20.04-8.67,21.12-42.97,13.9-44.95c-7.4-2.17-14.98,16.07-18.23,28.53c-3.97,14.99-2.89,35.39,11.37,38.27
		c15.17,3.07,33.22-9.21,38.64-24.19c0,0,0-0.18,0.18-0.18c3.43-1.08,6.14,1.26,3.97,7.04c-7.4,18.78-30.33,32.86-53.8,27.8
		c-13.72-3.07-28.71-20.4-24.01-46.04c4.88-25.64,23.65-42.97,47.12-38.82c33.4,6.14,23.65,45.14-19.5,59.4
		C1963.42,212.36,1956.92,208.56,1963.78,205.49z"/>
	<path d="M2052.25,191.77c-13-0.9-9.57-18.23-9.57-18.23c8.67,5.05,12.64,0.36,13.9-4.69c0.9-4.69-1.08-9.75-6.5-10.29
		c-7.22-0.9-15.35,12.82-20.04,30.33c-4.69,18.42-1.08,36.29,9.03,38.28c13.36,2.71,32.5-13,36.47-24.19h0.36
		c3.07-1.26,6.14,1.08,3.79,6.86c-6.14,15.53-29.97,32.5-51.82,27.8c-13.54-2.89-26.18-20.4-21.48-45.86
		c5.05-26.72,27.98-43.69,47.12-39c11.74,3.07,18.05,11.73,16.43,22.57C2068.67,184.91,2061.09,192.68,2052.25,191.77z"/>
	<path d="M2097.56,201.52c-4.88,33.22-9.57,38.27-22.39,33.22c0,0-0.9-2.53-0.9-8.67c0-25.64,3.07-54.88,7.58-82.33
		c-37.55,12.82-61.75-13.54-44.59-47.12c24.37-47.84,96.41-76.55,79.62-9.21c-2.71,10.29-4.7,19.86-6.68,28.89
		c17.88-7.94,40.08-15.17,61.57-8.3c23.29,7.58,21.12,29.61,10.83,37.19c0,0-4.15-10.83-22.93-16.25
		c-15.53-4.69-33.94-4.15-52.18,3.07c-2.71,15.71-4.7,31.05-7.04,48.57c12.28-21.3,27.62-30.87,36.83-28.71
		c7.58,2.17,10.11,16.07,3.97,41.34c-3.79,16.43-5.06,31.23,0.72,32.5c5.78,1.26,15.53-9.75,20.22-22.75h0.18
		c3.25-1.08,6.14,1.26,3.97,7.04c-7.04,17.51-22.03,29.79-34.3,28.35c-12.46-1.62-19.86-17.15-13.36-41.53
		c5.6-21.48,4.33-27.98,0.72-28.71C2115.98,167.22,2108.75,174.26,2097.56,201.52z M2084.56,128.58
		c3.61-19.5,7.76-37.19,11.92-51.45c8.49-30.15-21.12-24.01-38.82,12.82C2046.65,112.7,2056.04,139.6,2084.56,128.58z"/>
	<path d="M1823.8,139.23l-13.1,16.58c-0.95,1.2-2.88,0.66-3.06-0.87l-3.48-29.68c-0.18-1.52,1.57-2.5,2.78-1.55l16.58,13.1
		C1824.26,137.4,1824.39,138.49,1823.8,139.23z"/>
	<path d="M1847.54,139.23l13.1,16.58c0.95,1.2,2.88,0.66,3.06-0.87l3.48-29.68c0.18-1.52-1.57-2.5-2.78-1.55l-16.58,13.1
		C1847.08,137.4,1846.95,138.49,1847.54,139.23z"/>
</g>
<g>
	<path d="M1598,660.5c6.32,18.96,13.54,49.47,20.76,50.01c7.04,0.72,18.42-10.29,22.93-22.93h0.36c3.25-1.26,6.14,1.08,3.79,6.86
		c-6.86,17.69-23.47,29.97-35.75,28.35c-13.18-1.62-25.28-33.04-33.4-56.87c-3.07,0.36-5.96,0.72-8.85,0.9
		c-0.54,4.7-1.08,9.57-1.44,15.17c-3.79,40.8-21.12,53.08-32.32,43.15c0,0,2.53-2.89,4.33-8.85
		c14.62-44.23,10.11-101.28,22.75-116.63c13-15.89,29.25-4.87,29.25,2.53c0,0-13.36,0.54-21.3,54.52c25.82-0.9,47.3-19.68,52-37.37
		c5.78-23.11-12.46-33.4-37.19-33.4c-37.37,0-58.68,18.6-65,37.37c-6.32,18.42,9.93,27.26,21.3,22.39c0,0,4.88,23.65-15.35,23.47
		c-18.78-0.36-33.76-18.96-22.39-44.96c12.28-28.35,46.4-49.65,89.19-50.91c34.48-1.08,60.48,12.1,53.44,41.71
		C1640.07,636.67,1620.75,652.38,1598,660.5z"/>
	<path d="M1669.67,691.19c20.04-8.67,21.12-42.97,13.9-44.95c-7.4-2.17-14.99,16.07-18.23,28.53c-3.97,14.99-2.89,35.39,11.37,38.27
		c15.17,3.07,33.22-9.21,38.64-24.19c0,0,0-0.18,0.18-0.18c3.43-1.08,6.14,1.26,3.97,7.04c-7.4,18.78-30.33,32.86-53.8,27.8
		c-13.72-3.07-28.71-20.4-24.01-46.04c4.87-25.64,23.65-42.97,47.12-38.82c33.4,6.14,23.65,45.14-19.5,59.4
		C1669.31,698.05,1662.81,694.26,1669.67,691.19z"/>
	<path d="M1721.67,636.85c12.1-7.94,23.29,4.33,23.29,4.33s-3.97,3.07-7.4,24.55c13.18-24.01,26-33.4,37.37-29.43
		c8.49,2.89,9.39,17.33,3.43,42.61c-6.86,28.89-9.57,45.5-5.24,47.12c4.15,1.44,8.85-2.89,12.64-13.36l0.18-0.18
		c3.25-1.26,6.14,1.26,4.15,6.86c-6.86,16.97-19.32,23.11-29.61,18.6c-10.11-4.33-13.54-22.21-4.88-55.43
		c5.78-21.48,5.6-28.89,1.81-30.33c-3.25-0.9-11.37,7.4-22.57,33.94c-4.15,34.3-9.57,39.36-22.75,34.3c0,0-0.72-2.35-0.72-8.48
		C1711.2,670.25,1710.29,644.43,1721.67,636.85z"/>
	<path d="M2009.84,691.19c20.04-8.67,21.12-42.97,13.9-44.95c-7.4-2.17-14.98,16.07-18.23,28.53c-3.97,14.99-2.89,35.39,11.37,38.27
		c15.17,3.07,33.22-9.21,38.64-24.19c0,0,0-0.18,0.18-0.18c3.43-1.08,6.14,1.26,3.97,7.04c-7.4,18.78-30.33,32.86-53.8,27.8
		c-13.72-3.07-28.71-20.4-24.01-46.04c4.88-25.64,23.65-42.97,47.12-38.82c33.4,6.14,23.65,45.14-19.5,59.4
		C2009.48,698.05,2002.98,694.26,2009.84,691.19z"/>
	<path d="M2098.3,677.47c-13-0.9-9.57-18.23-9.57-18.23c8.67,5.05,12.64,0.36,13.9-4.69c0.9-4.69-1.08-9.75-6.5-10.29
		c-7.22-0.9-15.35,12.82-20.04,30.33c-4.69,18.42-1.08,36.29,9.03,38.28c13.36,2.71,32.5-13,36.47-24.19h0.36
		c3.07-1.26,6.14,1.08,3.79,6.86c-6.14,15.53-29.97,32.5-51.82,27.8c-13.54-2.89-26.18-20.4-21.48-45.86
		c5.05-26.72,27.98-43.69,47.12-39c11.74,3.07,18.05,11.73,16.43,22.57C2114.73,670.61,2107.15,678.37,2098.3,677.47z"/>
	<path d="M2143.62,687.22c-4.88,33.22-9.57,38.27-22.39,33.22c0,0-0.9-2.53-0.9-8.67c0-25.64,3.07-54.88,7.58-82.33
		c-37.55,12.82-61.75-13.54-44.59-47.12c24.37-47.84,96.41-76.55,79.62-9.21c-2.71,10.29-4.7,19.86-6.68,28.89
		c17.88-7.94,40.08-15.17,61.57-8.3c23.29,7.58,21.12,29.61,10.83,37.19c0,0-4.15-10.83-22.93-16.25
		c-15.53-4.69-33.94-4.15-52.18,3.07c-2.71,15.71-4.7,31.05-7.04,48.57c12.28-21.3,27.62-30.87,36.83-28.71
		c7.58,2.17,10.11,16.07,3.97,41.34c-3.79,16.43-5.06,31.23,0.72,32.5c5.78,1.26,15.53-9.75,20.22-22.75h0.18
		c3.25-1.08,6.14,1.26,3.97,7.04c-7.04,17.51-22.03,29.79-34.3,28.35c-12.46-1.62-19.86-17.15-13.36-41.53
		c5.6-21.48,4.33-27.98,0.72-28.71C2162.04,652.92,2154.81,659.96,2143.62,687.22z M2130.62,614.28
		c3.61-19.5,7.76-37.19,11.92-51.45c8.49-30.15-21.12-24.01-38.82,12.82C2092.71,598.39,2102.1,625.3,2130.62,614.28z"/>
	<path class="st0" d="M1869.86,624.93l-13.1,16.58c-0.95,1.2-2.88,0.66-3.06-0.87l-3.48-29.68c-0.18-1.52,1.57-2.5,2.78-1.55
		l16.58,13.1C1870.32,623.1,1870.45,624.18,1869.86,624.93z"/>
	<path class="st0" d="M1893.6,624.93l13.1,16.58c0.95,1.2,2.88,0.66,3.06-0.87l3.48-29.68c0.18-1.52-1.57-2.5-2.78-1.55l-16.58,13.1
		C1893.13,623.1,1893.01,624.18,1893.6,624.93z"/>
	<g>
		<path d="M1951.77,602.91c-13.54-12.46-24.73-0.72-24.73-0.72s3.43,5.23,7.4,15.89l23.11-6.14
			C1955.92,607.96,1953.75,604.89,1951.77,602.91z"/>
		<line class="st1" x1="1934.44" y1="618.07" x2="1957.55" y2="611.93"/>
	</g>
	<g>
		<path d="M1945.63,663.39c2.89,17.69,4.33,46.22-0.72,48.21c-5.42,1.99-13-9.93-17.69-22.75l-0.18-0.18
			c-3.25-1.08-6.14,1.45-3.97,7.04c6.86,17.33,21.3,31.6,33.4,26.18c11.55-5.06,14.44-34.3,11.73-58.5
			c-1.26-12.64-3.07-25.82-5.78-36.47l-23.29,5.23C1941.48,640.64,1943.65,650.57,1945.63,663.39z"/>
		<path class="st0" d="M2022,597.67c-17.87-2.53-41.7,6.86-64.45,14.26l-23.11,6.14c-7.04,1.26-13.72,1.99-19.68,1.08l-2.35-0.36
			c-8.12,3.61-7.4,12.64,4.51,14.98c5.24,1.08,13.18,0,22.21-1.62l23.29-5.23c18.42-4.33,37.73-8.67,51.27-6.5
			c19.14,2.89,25.28,11.92,25.28,11.92C2047.82,623.13,2046.19,601.1,2022,597.67z"/>
		<line class="st1" x1="1939.13" y1="632.16" x2="1962.42" y2="626.92"/>
	</g>
	<g>
		<path d="M1836.49,602.19c0,0-11.19-11.74-24.73,0.72c-1.99,1.99-4.15,5.06-5.78,9.03l23.11,6.14
			C1833.06,607.42,1836.49,602.19,1836.49,602.19z"/>
		<path class="st0" d="M1851.12,618.8l-2.35,0.36c-5.96,0.9-12.64,0.18-19.68-1.08l-23.11-6.14c-22.75-7.4-46.58-16.79-64.45-14.26
			c-24.19,3.43-25.82,25.46-16.97,34.66c0,0,6.14-9.03,25.28-11.92c13.54-2.17,32.86,2.17,51.27,6.5l23.29,5.23
			c9.03,1.62,16.97,2.71,22.21,1.62C1858.52,631.43,1859.24,622.41,1851.12,618.8z"/>
		<path d="M1795.33,663.39c-2.71,24.19,0.18,53.44,11.74,58.5c12.1,5.42,26.54-8.85,33.4-26.18c2.17-5.6-0.72-8.12-3.97-7.04
			l-0.18,0.18c-4.69,12.82-12.28,24.73-17.69,22.75c-5.06-1.99-3.61-30.51-0.72-48.21c1.99-12.82,4.15-22.75,6.5-31.23l-23.29-5.23
			C1798.4,637.57,1796.59,650.75,1795.33,663.39z"/>
		<line class="st1" x1="1801.11" y1="626.92" x2="1824.4" y2="632.16"/>
	</g>
</g>
<g>
	<path d="M2021.77,412.42c6.32,18.96,13.54,49.47,20.76,50.01c7.04,0.72,18.41-10.29,22.93-22.93h0.36
		c3.25-1.26,6.14,1.08,3.79,6.86c-6.86,17.69-23.47,29.97-35.75,28.35c-13.18-1.62-25.28-33.04-33.4-56.87
		c-3.07,0.36-5.96,0.72-8.85,0.9c-0.54,4.7-1.08,9.57-1.44,15.17c-3.79,40.8-21.12,53.08-32.32,43.15c0,0,2.53-2.89,4.33-8.85
		c14.62-44.23,10.11-101.28,22.75-116.63c13-15.89,29.25-4.87,29.25,2.53c0,0-13.36,0.54-21.3,54.52c25.82-0.9,47.3-19.68,52-37.37
		c5.78-23.11-12.46-33.4-37.19-33.4c-37.37,0-58.68,18.6-65,37.37c-6.32,18.42,9.93,27.26,21.3,22.39c0,0,4.88,23.65-15.35,23.47
		c-18.78-0.36-33.76-18.96-22.39-44.96c12.28-28.35,46.4-49.65,89.19-50.91c34.48-1.08,60.48,12.1,53.44,41.71
		C2063.83,388.59,2044.51,404.3,2021.77,412.42z"/>
	<path d="M2093.44,443.12c20.04-8.67,21.12-42.97,13.9-44.95c-7.4-2.17-14.99,16.07-18.23,28.53c-3.97,14.99-2.89,35.39,11.37,38.27
		c15.17,3.07,33.22-9.21,38.64-24.19c0,0,0-0.18,0.18-0.18c3.43-1.08,6.14,1.26,3.97,7.04c-7.4,18.78-30.33,32.86-53.8,27.8
		c-13.72-3.07-28.71-20.4-24.01-46.04c4.87-25.64,23.65-42.97,47.12-38.82c33.4,6.14,23.65,45.14-19.5,59.4
		C2093.08,449.98,2086.58,446.19,2093.44,443.12z"/>
	<path d="M2145.44,388.77c12.1-7.94,23.29,4.33,23.29,4.33s-3.97,3.07-7.4,24.55c13.18-24.01,26-33.4,37.37-29.43
		c8.49,2.89,9.39,17.33,3.43,42.61c-6.86,28.89-9.57,45.5-5.24,47.12c4.15,1.44,8.85-2.89,12.64-13.36l0.18-0.18
		c3.25-1.26,6.14,1.26,4.15,6.86c-6.86,16.97-19.32,23.11-29.61,18.6c-10.11-4.33-13.54-22.21-4.88-55.43
		c5.78-21.48,5.6-28.89,1.81-30.33c-3.25-0.9-11.37,7.4-22.57,33.94c-4.15,34.3-9.57,39.36-22.75,34.3c0,0-0.72-2.35-0.72-8.48
		C2134.96,422.17,2134.06,396.36,2145.44,388.77z"/>
	<path d="M2433.61,443.12c20.04-8.67,21.12-42.97,13.9-44.95c-7.4-2.17-14.98,16.07-18.23,28.53c-3.97,14.99-2.89,35.39,11.37,38.27
		c15.17,3.07,33.22-9.21,38.64-24.19c0,0,0-0.18,0.18-0.18c3.43-1.08,6.14,1.26,3.97,7.04c-7.4,18.78-30.33,32.86-53.8,27.8
		c-13.72-3.07-28.71-20.4-24.01-46.04c4.88-25.64,23.65-42.97,47.12-38.82c33.4,6.14,23.65,45.14-19.5,59.4
		C2433.25,449.98,2426.75,446.19,2433.61,443.12z"/>
	<path d="M2522.07,429.39c-13-0.9-9.57-18.23-9.57-18.23c8.67,5.05,12.64,0.36,13.9-4.69c0.9-4.69-1.08-9.75-6.5-10.29
		c-7.22-0.9-15.35,12.82-20.04,30.33c-4.69,18.42-1.08,36.29,9.03,38.28c13.36,2.71,32.5-13,36.47-24.19h0.36
		c3.07-1.26,6.14,1.08,3.79,6.86c-6.14,15.53-29.97,32.5-51.82,27.8c-13.54-2.89-26.18-20.4-21.48-45.86
		c5.05-26.72,27.98-43.69,47.12-39c11.74,3.07,18.05,11.73,16.43,22.57C2538.5,422.53,2530.92,430.3,2522.07,429.39z"/>
	<path d="M2567.39,439.14c-4.88,33.22-9.57,38.27-22.39,33.22c0,0-0.9-2.53-0.9-8.67c0-25.64,3.07-54.88,7.58-82.33
		c-37.55,12.82-61.75-13.54-44.59-47.12c24.37-47.84,96.41-76.55,79.62-9.21c-2.71,10.29-4.7,19.86-6.68,28.89
		c17.88-7.94,40.08-15.17,61.57-8.3c23.29,7.58,21.12,29.61,10.83,37.19c0,0-4.15-10.83-22.93-16.25
		c-15.53-4.69-33.94-4.15-52.18,3.07c-2.71,15.71-4.7,31.05-7.04,48.57c12.28-21.3,27.62-30.87,36.83-28.71
		c7.58,2.17,10.11,16.07,3.97,41.34c-3.79,16.43-5.06,31.23,0.72,32.5c5.78,1.26,15.53-9.75,20.22-22.75h0.18
		c3.25-1.08,6.14,1.26,3.97,7.04c-7.04,17.51-22.03,29.79-34.3,28.35c-12.46-1.62-19.86-17.15-13.36-41.53
		c5.6-21.48,4.33-27.98,0.72-28.71C2585.8,404.84,2578.58,411.88,2567.39,439.14z M2554.39,366.21c3.61-19.5,7.76-37.19,11.92-51.45
		c8.49-30.15-21.12-24.01-38.82,12.82C2516.47,350.32,2525.86,377.22,2554.39,366.21z"/>
	<path class="st0" d="M2293.63,376.85l-13.1,16.58c-0.95,1.2-2.88,0.66-3.06-0.87l-3.48-29.68c-0.18-1.52,1.57-2.5,2.78-1.55
		l16.58,13.1C2294.09,375.02,2294.21,376.11,2293.63,376.85z"/>
	<path class="st0" d="M2317.36,376.85l13.1,16.58c0.95,1.2,2.88,0.66,3.06-0.87l3.48-29.68c0.18-1.52-1.57-2.5-2.78-1.55
		l-16.58,13.1C2316.9,375.02,2316.77,376.11,2317.36,376.85z"/>
	<g>
		<path d="M2375.53,354.83c-13.54-12.46-24.73-0.72-24.73-0.72s3.43,5.23,7.4,15.89l23.11-6.14
			C2379.69,359.89,2377.52,356.82,2375.53,354.83z"/>
		<line class="st1" x1="2358.2" y1="370" x2="2381.31" y2="363.86"/>
	</g>
	<g>
		<path d="M2369.4,415.31c2.89,17.69,4.33,46.22-0.72,48.21c-5.42,1.99-13-9.93-17.69-22.75l-0.18-0.18
			c-3.25-1.08-6.14,1.45-3.97,7.04c6.86,17.33,21.3,31.6,33.4,26.18c11.55-5.06,14.44-34.3,11.73-58.5
			c-1.26-12.64-3.07-25.82-5.78-36.47l-23.29,5.23C2365.24,392.56,2367.41,402.49,2369.4,415.31z"/>
		<path class="st0" d="M2445.77,349.6c-17.87-2.53-41.7,6.86-64.45,14.26L2358.2,370c-7.04,1.26-13.72,1.99-19.68,1.08l-2.35-0.36
			c-8.12,3.61-7.4,12.64,4.51,14.98c5.24,1.08,13.18,0,22.21-1.62l23.29-5.23c18.42-4.33,37.73-8.67,51.27-6.5
			c19.14,2.89,25.28,11.92,25.28,11.92C2471.58,375.05,2469.96,353.03,2445.77,349.6z"/>
		<line class="st1" x1="2362.9" y1="384.08" x2="2386.19" y2="378.84"/>
	</g>
	<g>
		<path d="M2260.26,354.11c0,0-11.19-11.74-24.73,0.72c-1.99,1.99-4.15,5.06-5.78,9.03l23.11,6.14
			C2256.83,359.34,2260.26,354.11,2260.26,354.11z"/>
		<path class="st0" d="M2274.88,370.72l-2.35,0.36c-5.96,0.9-12.64,0.18-19.68-1.08l-23.11-6.14c-22.75-7.4-46.58-16.79-64.45-14.26
			c-24.19,3.43-25.82,25.46-16.97,34.66c0,0,6.14-9.03,25.28-11.92c13.54-2.17,32.86,2.17,51.27,6.5l23.29,5.23
			c9.03,1.62,16.97,2.71,22.21,1.62C2282.29,383.36,2283.01,374.33,2274.88,370.72z"/>
		<path d="M2219.1,415.31c-2.71,24.19,0.18,53.44,11.74,58.5c12.1,5.42,26.54-8.85,33.4-26.18c2.17-5.6-0.72-8.12-3.97-7.04
			l-0.18,0.18c-4.69,12.82-12.28,24.73-17.69,22.75c-5.06-1.99-3.61-30.51-0.72-48.21c1.99-12.82,4.15-22.75,6.5-31.23l-23.29-5.23
			C2222.17,389.5,2220.36,402.67,2219.1,415.31z"/>
		<line class="st1" x1="2224.87" y1="378.84" x2="2248.16" y2="384.08"/>
	</g>
</g>
<g>
	<path class="st0" d="M2076.78,913.1c6.32,18.96,13.54,49.47,20.76,50.01c7.04,0.72,18.42-10.29,22.93-22.93h0.36
		c3.25-1.26,6.14,1.08,3.79,6.86c-6.86,17.69-23.47,29.97-35.75,28.35c-13.18-1.62-25.28-33.04-33.4-56.87
		c-3.07,0.36-5.96,0.72-8.85,0.9c-0.54,4.7-1.08,9.57-1.44,15.17c-3.79,40.8-21.12,53.08-32.32,43.15c0,0,2.53-2.89,4.33-8.85
		c14.62-44.23,10.11-101.28,22.75-116.63c13-15.89,29.25-4.87,29.25,2.53c0,0-13.36,0.54-21.3,54.52c25.82-0.9,47.3-19.68,52-37.37
		c5.78-23.11-12.46-33.4-37.19-33.4c-37.37,0-58.68,18.6-65,37.37c-6.32,18.42,9.93,27.26,21.3,22.39c0,0,4.88,23.65-15.35,23.47
		c-18.78-0.36-33.76-18.96-22.39-44.96c12.28-28.35,46.4-49.65,89.19-50.91c34.48-1.08,60.48,12.1,53.44,41.71
		C2118.85,889.27,2099.53,904.97,2076.78,913.1z"/>
	<path class="st0" d="M2148.46,943.79c20.04-8.67,21.12-42.97,13.9-44.95c-7.4-2.17-14.99,16.07-18.23,28.53
		c-3.97,14.99-2.89,35.39,11.37,38.27c15.17,3.07,33.22-9.21,38.64-24.19c0,0,0-0.18,0.18-0.18c3.43-1.08,6.14,1.26,3.97,7.04
		c-7.4,18.78-30.33,32.86-53.8,27.8c-13.72-3.07-28.71-20.4-24.01-46.04c4.87-25.64,23.65-42.97,47.12-38.82
		c33.4,6.14,23.65,45.14-19.5,59.4C2148.09,950.65,2141.59,946.86,2148.46,943.79z"/>
	<path class="st0" d="M2200.45,889.45c12.1-7.94,23.29,4.33,23.29,4.33s-3.97,3.07-7.4,24.55c13.18-24.01,26-33.4,37.37-29.43
		c8.49,2.89,9.39,17.33,3.43,42.61c-6.86,28.89-9.57,45.5-5.24,47.12c4.15,1.44,8.85-2.89,12.64-13.36l0.18-0.18
		c3.25-1.26,6.14,1.26,4.15,6.86c-6.86,16.97-19.32,23.11-29.61,18.6c-10.11-4.33-13.54-22.21-4.88-55.43
		c5.78-21.48,5.6-28.89,1.81-30.33c-3.25-0.9-11.37,7.4-22.57,33.94c-4.15,34.3-9.57,39.36-22.75,34.3c0,0-0.72-2.35-0.72-8.48
		C2189.98,922.85,2189.08,897.03,2200.45,889.45z"/>
	<path class="st0" d="M2488.62,943.79c20.04-8.67,21.12-42.97,13.9-44.95c-7.4-2.17-14.98,16.07-18.23,28.53
		c-3.97,14.99-2.89,35.39,11.37,38.27c15.17,3.07,33.22-9.21,38.64-24.19c0,0,0-0.18,0.18-0.18c3.43-1.08,6.14,1.26,3.97,7.04
		c-7.4,18.78-30.33,32.86-53.8,27.8c-13.72-3.07-28.71-20.4-24.01-46.04c4.88-25.64,23.65-42.97,47.12-38.82
		c33.4,6.14,23.65,45.14-19.5,59.4C2488.26,950.65,2481.76,946.86,2488.62,943.79z"/>
	<path class="st0" d="M2577.09,930.07c-13-0.9-9.57-18.23-9.57-18.23c8.67,5.05,12.64,0.36,13.9-4.69c0.9-4.69-1.08-9.75-6.5-10.29
		c-7.22-0.9-15.35,12.82-20.04,30.33c-4.69,18.42-1.08,36.29,9.03,38.28c13.36,2.71,32.5-13,36.47-24.19h0.36
		c3.07-1.26,6.14,1.08,3.79,6.86c-6.14,15.53-29.97,32.5-51.82,27.8c-13.54-2.89-26.18-20.4-21.48-45.86
		c5.05-26.72,27.98-43.69,47.12-39c11.74,3.07,18.05,11.73,16.43,22.57C2593.52,923.21,2585.93,930.97,2577.09,930.07z"/>
	<path class="st0" d="M2622.4,939.82c-4.88,33.22-9.57,38.27-22.39,33.22c0,0-0.9-2.53-0.9-8.67c0-25.64,3.07-54.88,7.58-82.33
		c-37.55,12.82-61.75-13.54-44.59-47.12c24.37-47.84,96.41-76.55,79.62-9.21c-2.71,10.29-4.7,19.86-6.68,28.89
		c17.88-7.94,40.08-15.17,61.57-8.3c23.29,7.58,21.12,29.61,10.83,37.19c0,0-4.15-10.83-22.93-16.25
		c-15.53-4.69-33.94-4.15-52.18,3.07c-2.71,15.71-4.7,31.05-7.04,48.57c12.28-21.3,27.62-30.87,36.83-28.71
		c7.58,2.17,10.11,16.07,3.97,41.34c-3.79,16.43-5.06,31.23,0.72,32.5c5.78,1.26,15.53-9.75,20.22-22.75h0.18
		c3.25-1.08,6.14,1.26,3.97,7.04c-7.04,17.51-22.03,29.79-34.3,28.35c-12.46-1.62-19.86-17.15-13.36-41.53
		c5.6-21.48,4.33-27.98,0.72-28.71C2640.82,905.52,2633.6,912.56,2622.4,939.82z M2609.4,866.88c3.61-19.5,7.76-37.19,11.92-51.45
		c8.49-30.15-21.12-24.01-38.82,12.82C2571.49,850.99,2580.88,877.89,2609.4,866.88z"/>
	<path class="st2" d="M2348.64,877.53l-13.1,16.58c-0.95,1.2-2.88,0.66-3.06-0.87l-3.48-29.68c-0.18-1.52,1.57-2.5,2.78-1.55
		l16.58,13.1C2349.1,875.7,2349.23,876.78,2348.64,877.53z"/>
	<path class="st2" d="M2372.38,877.53l13.1,16.58c0.95,1.2,2.88,0.66,3.06-0.87l3.48-29.68c0.18-1.52-1.57-2.5-2.78-1.55
		l-16.58,13.1C2371.92,875.7,2371.79,876.78,2372.38,877.53z"/>
	<g>
		<path class="st0" d="M2430.55,855.51c-13.54-12.46-24.73-0.72-24.73-0.72s3.43,5.23,7.4,15.89l23.11-6.14
			C2434.7,860.56,2432.54,857.49,2430.55,855.51z"/>
		<line class="st1" x1="2413.22" y1="870.67" x2="2436.33" y2="864.53"/>
	</g>
	<g>
		<path class="st0" d="M2424.41,915.99c2.89,17.69,4.33,46.22-0.72,48.21c-5.42,1.99-13-9.93-17.69-22.75l-0.18-0.18
			c-3.25-1.08-6.14,1.45-3.97,7.04c6.86,17.33,21.3,31.6,33.4,26.18c11.55-5.06,14.44-34.3,11.73-58.5
			c-1.26-12.64-3.07-25.82-5.78-36.47l-23.29,5.23C2420.26,893.24,2422.43,903.17,2424.41,915.99z"/>
		<path class="st2" d="M2500.78,850.27c-17.87-2.53-41.7,6.86-64.45,14.26l-23.11,6.14c-7.04,1.26-13.72,1.99-19.68,1.08l-2.35-0.36
			c-8.12,3.61-7.4,12.64,4.51,14.98c5.24,1.08,13.18,0,22.21-1.62l23.29-5.23c18.42-4.33,37.73-8.67,51.27-6.5
			c19.14,2.89,25.28,11.92,25.28,11.92C2526.6,875.73,2524.98,853.7,2500.78,850.27z"/>
		<line class="st1" x1="2417.91" y1="884.75" x2="2441.2" y2="879.52"/>
	</g>
	<g>
		<path class="st0" d="M2315.28,854.78c0,0-11.19-11.74-24.73,0.72c-1.99,1.99-4.15,5.06-5.78,9.03l23.11,6.14
			C2311.84,860.02,2315.28,854.78,2315.28,854.78z"/>
		<path class="st2" d="M2329.9,871.39l-2.35,0.36c-5.96,0.9-12.64,0.18-19.68-1.08l-23.11-6.14c-22.75-7.4-46.58-16.79-64.45-14.26
			c-24.19,3.43-25.82,25.46-16.97,34.66c0,0,6.14-9.03,25.28-11.92c13.54-2.17,32.86,2.17,51.27,6.5l23.29,5.23
			c9.03,1.62,16.97,2.71,22.21,1.62C2337.3,884.03,2338.02,875.01,2329.9,871.39z"/>
		<path class="st0" d="M2274.11,915.99c-2.71,24.19,0.18,53.44,11.74,58.5c12.1,5.42,26.54-8.85,33.4-26.18
			c2.17-5.6-0.72-8.12-3.97-7.04l-0.18,0.18c-4.69,12.82-12.28,24.73-17.69,22.75c-5.06-1.99-3.61-30.51-0.72-48.21
			c1.99-12.82,4.15-22.75,6.5-31.23l-23.29-5.23C2277.18,890.17,2275.38,903.35,2274.11,915.99z"/>
		<line class="st1" x1="2279.89" y1="879.52" x2="2303.18" y2="884.75"/>
	</g>
</g>
<g>
	<path class="st0" d="M189.44,428.19c11.58,34.74,24.82,90.67,38.05,91.66c12.9,1.32,33.75-18.86,42.02-42.02h0.66
		c5.96-2.32,11.25,1.98,6.95,12.57c-12.57,32.43-43.02,54.93-65.52,51.95c-24.16-2.98-46.33-60.55-61.22-104.23
		c-5.63,0.66-10.92,1.32-16.21,1.65c-0.99,8.61-1.98,17.54-2.65,27.8c-6.95,74.78-38.71,97.28-59.23,79.09c0,0,4.63-5.29,7.94-16.22
		c26.8-81.07,18.53-185.63,41.69-213.76c23.82-29.12,53.61-8.93,53.61,4.63c0,0-24.49,0.99-39.05,99.93
		c47.32-1.65,86.69-36.07,95.3-68.5c10.59-42.35-22.83-61.21-68.16-61.21c-68.49,0-107.54,34.08-119.12,68.5
		c-11.58,33.75,18.2,49.96,39.05,41.03c0,0,8.93,43.35-28.13,43.02c-34.41-0.66-61.88-34.74-41.03-82.39
		c22.5-51.95,85.04-91,163.46-93.31c63.2-1.99,110.85,22.17,97.94,76.44C266.53,384.51,231.13,413.29,189.44,428.19z"/>
	<path class="st0" d="M320.8,484.44c36.73-15.88,38.71-78.75,25.48-82.39c-13.57-3.97-27.46,29.45-33.42,52.28
		c-7.28,27.46-5.29,64.85,20.85,70.15c27.8,5.63,60.88-16.87,70.81-44.34c0,0,0-0.33,0.33-0.33c6.29-1.98,11.25,2.32,7.28,12.9
		c-13.57,34.41-55.59,60.22-98.61,50.96c-25.15-5.63-52.61-37.39-44.01-84.38c8.93-46.99,43.35-78.75,86.36-71.14
		c61.22,11.25,43.35,82.72-35.74,108.86C320.14,497.01,308.22,490.06,320.8,484.44z"/>
	<path class="st0" d="M416.1,384.84c22.17-14.56,42.68,7.94,42.68,7.94s-7.28,5.63-13.57,45c24.15-44.01,47.65-61.22,68.5-53.94
		c15.55,5.29,17.21,31.77,6.29,78.09c-12.57,52.94-17.54,83.38-9.6,86.36c7.61,2.65,16.21-5.29,23.16-24.49l0.33-0.33
		c5.96-2.32,11.25,2.32,7.61,12.58c-12.57,31.1-35.41,42.35-54.27,34.08c-18.53-7.94-24.82-40.7-8.93-101.59
		c10.59-39.38,10.26-52.94,3.31-55.59c-5.96-1.65-20.85,13.57-41.36,62.21c-7.61,62.87-17.54,72.14-41.69,62.87
		c0,0-1.32-4.3-1.32-15.55C396.9,446.06,395.25,398.74,416.1,384.84z"/>
	<path class="st0" d="M944.25,484.44c36.73-15.88,38.71-78.75,25.48-82.39c-13.57-3.97-27.46,29.45-33.42,52.28
		c-7.28,27.46-5.29,64.85,20.84,70.15c27.8,5.63,60.89-16.87,70.81-44.34c0,0,0-0.33,0.33-0.33c6.29-1.98,11.25,2.32,7.28,12.9
		c-13.57,34.41-55.59,60.22-98.61,50.96c-25.15-5.63-52.61-37.39-44.01-84.38c8.93-46.99,43.35-78.75,86.37-71.14
		c61.22,11.25,43.35,82.72-35.74,108.86C943.59,497.01,931.68,490.06,944.25,484.44z"/>
	<path class="st0" d="M1106.39,459.29c-23.82-1.65-17.54-33.42-17.54-33.42c15.88,9.26,23.16,0.66,25.48-8.6
		c1.65-8.6-1.99-17.87-11.91-18.86c-13.24-1.66-28.13,23.49-36.73,55.59c-8.6,33.75-1.98,66.51,16.55,70.15
		c24.48,4.96,59.56-23.83,66.84-44.34h0.66c5.63-2.32,11.25,1.99,6.95,12.58c-11.25,28.46-54.93,59.56-94.97,50.96
		c-24.82-5.29-47.98-37.39-39.38-84.05c9.26-48.97,51.29-80.08,86.36-71.47c21.51,5.62,33.09,21.51,30.11,41.36
		C1136.5,446.72,1122.6,460.94,1106.39,459.29z"/>
	<path class="st0" d="M1189.44,477.16c-8.93,60.88-17.54,70.15-41.03,60.88c0,0-1.65-4.63-1.65-15.88
		c0-46.99,5.63-100.59,13.9-150.89c-68.83,23.49-113.17-24.82-81.73-86.36c44.67-87.69,176.7-140.3,145.92-16.88
		c-4.96,18.86-8.61,36.4-12.25,52.94c32.76-14.56,73.46-27.8,112.84-15.22c42.68,13.9,38.71,54.27,19.85,68.16
		c0,0-7.61-19.85-42.03-29.78c-28.45-8.6-62.21-7.61-95.63,5.62c-4.96,28.79-8.61,56.91-12.9,89.01
		c22.5-39.05,50.63-56.58,67.5-52.61c13.9,3.97,18.53,29.45,7.28,75.78c-6.95,30.11-9.27,57.24,1.32,59.56
		c10.59,2.32,28.46-17.87,37.06-41.69h0.33c5.96-1.98,11.25,2.32,7.28,12.9c-12.9,32.1-40.37,54.6-62.87,51.95
		c-22.83-2.98-36.4-31.43-24.48-76.11c10.26-39.38,7.94-51.29,1.32-52.61C1223.19,414.29,1209.96,427.19,1189.44,477.16z
		 M1165.62,343.48c6.62-35.74,14.23-68.16,21.84-94.31c15.55-55.26-38.71-44.01-71.14,23.49
		C1096.13,314.36,1113.34,363.66,1165.62,343.48z"/>
	<path class="st2" d="M687.7,362.99l-24.01,30.39c-1.74,2.21-5.28,1.2-5.61-1.59l-6.39-54.4c-0.33-2.79,2.88-4.59,5.09-2.84
		l30.39,24.01C688.54,359.64,688.78,361.63,687.7,362.99z"/>
	<path class="st2" d="M731.2,362.99l24.01,30.39c1.74,2.21,5.28,1.2,5.61-1.59l6.39-54.4c0.33-2.79-2.88-4.59-5.09-2.84
		l-30.39,24.01C730.36,359.64,730.12,361.63,731.2,362.99z"/>
	<g>
		<path class="st0" d="M837.82,322.63c-24.81-22.83-45.33-1.32-45.33-1.32s6.29,9.59,13.57,29.12l42.35-11.25
			C845.43,331.9,841.46,326.27,837.82,322.63z"/>
	</g>
	<g>
		<path class="st0" d="M826.57,433.48c5.29,32.43,7.94,84.71-1.32,88.35c-9.93,3.64-23.83-18.2-32.43-41.69l-0.33-0.33
			c-5.95-1.98-11.25,2.65-7.28,12.9c12.57,31.77,39.04,57.91,61.22,47.98c21.18-9.27,26.47-62.87,21.51-107.21
			c-2.32-23.16-5.62-47.32-10.59-66.84l-42.68,9.59C818.96,391.79,822.93,409.99,826.57,433.48z"/>
		<path class="st2" d="M966.54,313.03c-32.76-4.63-76.44,12.57-118.13,26.14l-42.35,11.25c-12.9,2.32-25.15,3.64-36.07,1.99
			l-4.3-0.66c-14.89,6.62-13.57,23.16,8.27,27.46c9.6,1.99,24.16,0,40.7-2.98l42.68-9.59c33.75-7.94,69.16-15.88,93.98-11.91
			c35.07,5.29,46.33,21.84,46.33,21.84C1013.86,359.69,1010.88,319.32,966.54,313.03z"/>
	</g>
	<g>
		<path class="st0" d="M626.54,321.31c0,0-20.52-21.51-45.33,1.32c-3.64,3.64-7.61,9.27-10.59,16.54l42.35,11.25
			C620.26,330.9,626.54,321.31,626.54,321.31z"/>
		<path class="st2" d="M653.35,351.75l-4.3,0.66c-10.92,1.65-23.16,0.33-36.07-1.99l-42.35-11.25
			c-41.69-13.57-85.37-30.77-118.13-26.14c-44.34,6.29-47.32,46.66-31.1,63.53c0,0,11.25-16.55,46.33-21.84
			c24.82-3.97,60.22,3.97,93.97,11.91l42.69,9.59c16.54,2.98,31.1,4.96,40.7,2.98C666.91,374.91,668.24,358.37,653.35,351.75z"/>
		<path class="st0" d="M551.1,433.48c-4.96,44.34,0.33,97.94,21.51,107.21c22.17,9.93,48.64-16.22,61.22-47.98
			c3.97-10.26-1.32-14.89-7.28-12.9l-0.33,0.33c-8.6,23.49-22.5,45.33-32.43,41.69c-9.27-3.64-6.62-55.92-1.32-88.35
			c3.64-23.49,7.61-41.69,11.91-57.25l-42.69-9.59C556.72,386.16,553.42,410.32,551.1,433.48z"/>
	</g>
</g>
<g>
	<path class="st0" d="M338.59,1184.58c6.32,18.96,13.54,49.47,20.76,50.01c7.04,0.72,18.42-10.29,22.93-22.93h0.36
		c3.25-1.26,6.14,1.08,3.79,6.86c-6.86,17.69-23.47,29.97-35.75,28.35c-13.18-1.62-25.28-33.04-33.4-56.87
		c-3.07,0.36-5.96,0.72-8.85,0.9c-0.54,4.7-1.08,9.57-1.44,15.17c-3.79,40.8-21.12,53.08-32.32,43.15c0,0,2.53-2.89,4.33-8.85
		c14.62-44.23,10.11-101.28,22.75-116.63c13-15.89,29.25-4.87,29.25,2.53c0,0-13.36,0.54-21.3,54.52c25.82-0.9,47.3-19.68,52-37.37
		c5.78-23.11-12.46-33.4-37.19-33.4c-37.37,0-58.68,18.6-65,37.37c-6.32,18.42,9.93,27.26,21.3,22.39c0,0,4.88,23.65-15.35,23.47
		c-18.78-0.36-33.76-18.96-22.39-44.96c12.28-28.35,46.4-49.65,89.19-50.91c34.48-1.08,60.48,12.1,53.44,41.71
		C380.66,1160.75,361.34,1176.45,338.59,1184.58z"/>
	<path class="st0" d="M410.26,1215.27c20.04-8.67,21.12-42.97,13.9-44.95c-7.4-2.17-14.99,16.07-18.23,28.53
		c-3.97,14.99-2.89,35.39,11.37,38.27c15.17,3.07,33.22-9.21,38.64-24.19c0,0,0-0.18,0.18-0.18c3.43-1.08,6.14,1.26,3.97,7.04
		c-7.4,18.78-30.33,32.86-53.8,27.8c-13.72-3.07-28.71-20.4-24.01-46.04c4.87-25.64,23.65-42.97,47.12-38.82
		c33.4,6.14,23.65,45.14-19.5,59.4C409.9,1222.13,403.4,1218.34,410.26,1215.27z"/>
	<path class="st0" d="M462.26,1160.93c12.1-7.94,23.29,4.33,23.29,4.33s-3.97,3.07-7.4,24.55c13.18-24.01,26-33.4,37.37-29.43
		c8.49,2.89,9.39,17.33,3.43,42.61c-6.86,28.89-9.57,45.5-5.24,47.12c4.15,1.44,8.85-2.89,12.64-13.36l0.18-0.18
		c3.25-1.26,6.14,1.26,4.15,6.86c-6.86,16.97-19.32,23.11-29.61,18.6c-10.11-4.33-13.54-22.21-4.88-55.43
		c5.78-21.48,5.6-28.89,1.81-30.33c-3.25-0.9-11.37,7.4-22.57,33.94c-4.15,34.3-9.57,39.36-22.75,34.3c0,0-0.72-2.35-0.72-8.48
		C451.79,1194.33,450.88,1168.51,462.26,1160.93z"/>
	<path class="st0" d="M750.43,1215.27c20.04-8.67,21.12-42.97,13.9-44.95c-7.4-2.17-14.98,16.07-18.23,28.53
		c-3.97,14.99-2.89,35.39,11.37,38.27c15.17,3.07,33.22-9.21,38.64-24.19c0,0,0-0.18,0.18-0.18c3.43-1.08,6.14,1.26,3.97,7.04
		c-7.4,18.78-30.33,32.86-53.8,27.8c-13.72-3.07-28.71-20.4-24.01-46.04c4.88-25.64,23.65-42.97,47.12-38.82
		c33.4,6.14,23.65,45.14-19.5,59.4C750.07,1222.13,743.57,1218.34,750.43,1215.27z"/>
	<path class="st0" d="M838.89,1201.55c-13-0.9-9.57-18.23-9.57-18.23c8.67,5.05,12.64,0.36,13.9-4.69c0.9-4.69-1.08-9.75-6.5-10.29
		c-7.22-0.9-15.35,12.82-20.04,30.33c-4.69,18.42-1.08,36.29,9.03,38.28c13.36,2.71,32.5-13,36.47-24.19h0.36
		c3.07-1.26,6.14,1.08,3.79,6.86c-6.14,15.53-29.97,32.5-51.82,27.8c-13.54-2.89-26.18-20.4-21.48-45.86
		c5.05-26.72,27.98-43.69,47.12-39c11.74,3.07,18.05,11.73,16.43,22.57C855.32,1194.69,847.74,1202.45,838.89,1201.55z"/>
	<path class="st0" d="M884.21,1211.3c-4.88,33.22-9.57,38.27-22.39,33.22c0,0-0.9-2.53-0.9-8.67c0-25.64,3.07-54.88,7.58-82.33
		c-37.55,12.82-61.75-13.54-44.59-47.12c24.37-47.84,96.41-76.55,79.62-9.21c-2.71,10.29-4.7,19.86-6.68,28.89
		c17.88-7.94,40.08-15.17,61.57-8.3c23.29,7.58,21.12,29.61,10.83,37.19c0,0-4.15-10.83-22.93-16.25
		c-15.53-4.69-33.94-4.15-52.18,3.07c-2.71,15.71-4.7,31.05-7.04,48.57c12.28-21.3,27.62-30.87,36.83-28.71
		c7.58,2.17,10.11,16.07,3.97,41.34c-3.79,16.43-5.06,31.23,0.72,32.5c5.78,1.26,15.53-9.75,20.22-22.75h0.18
		c3.25-1.08,6.14,1.26,3.97,7.04c-7.04,17.51-22.03,29.79-34.3,28.35c-12.46-1.62-19.86-17.15-13.36-41.53
		c5.6-21.48,4.33-27.98,0.72-28.71C902.62,1177,895.4,1184.04,884.21,1211.3z M871.21,1138.36c3.61-19.5,7.76-37.19,11.92-51.45
		c8.49-30.15-21.12-24.01-38.82,12.82C833.3,1122.47,842.69,1149.37,871.21,1138.36z"/>
	<path class="st2" d="M610.45,1149.01l-13.1,16.58c-0.95,1.2-2.88,0.66-3.06-0.87l-3.48-29.68c-0.18-1.52,1.57-2.5,2.78-1.55
		l16.58,13.1C610.91,1147.18,611.04,1148.26,610.45,1149.01z"/>
	<path class="st2" d="M634.19,1149.01l13.1,16.58c0.95,1.2,2.88,0.66,3.06-0.87l3.48-29.68c0.18-1.52-1.57-2.5-2.78-1.55
		l-16.58,13.1C633.72,1147.18,633.6,1148.26,634.19,1149.01z"/>
	<g>
		<path class="st0" d="M692.36,1126.99c-13.54-12.46-24.73-0.72-24.73-0.72s3.43,5.23,7.4,15.89l23.11-6.14
			C696.51,1132.04,694.34,1128.97,692.36,1126.99z"/>
		<line class="st1" x1="675.03" y1="1142.15" x2="698.14" y2="1136.01"/>
	</g>
	<g>
		<path class="st0" d="M686.22,1187.47c2.89,17.69,4.33,46.22-0.72,48.21c-5.42,1.99-13-9.93-17.69-22.75l-0.18-0.18
			c-3.25-1.08-6.14,1.45-3.97,7.04c6.86,17.33,21.3,31.6,33.4,26.18c11.55-5.06,14.44-34.3,11.73-58.5
			c-1.26-12.64-3.07-25.82-5.78-36.47l-23.29,5.23C682.07,1164.72,684.23,1174.65,686.22,1187.47z"/>
		<path class="st2" d="M762.59,1121.75c-17.87-2.53-41.7,6.86-64.45,14.26l-23.11,6.14c-7.04,1.26-13.72,1.99-19.68,1.08l-2.35-0.36
			c-8.12,3.61-7.4,12.64,4.51,14.98c5.24,1.08,13.18,0,22.21-1.62l23.29-5.23c18.42-4.33,37.73-8.67,51.27-6.5
			c19.14,2.89,25.28,11.92,25.28,11.92C788.41,1147.21,786.78,1125.18,762.59,1121.75z"/>
		<line class="st1" x1="679.72" y1="1156.23" x2="703.01" y2="1151"/>
	</g>
	<g>
		<path class="st0" d="M577.08,1126.26c0,0-11.19-11.74-24.73,0.72c-1.99,1.99-4.15,5.06-5.78,9.03l23.11,6.14
			C573.65,1131.5,577.08,1126.26,577.08,1126.26z"/>
		<path class="st2" d="M591.71,1142.87l-2.35,0.36c-5.96,0.9-12.64,0.18-19.68-1.08l-23.11-6.14c-22.75-7.4-46.58-16.79-64.45-14.26
			c-24.19,3.43-25.82,25.46-16.97,34.66c0,0,6.14-9.03,25.28-11.92c13.54-2.17,32.86,2.17,51.27,6.5l23.29,5.23
			c9.03,1.62,16.97,2.71,22.21,1.62C599.11,1155.51,599.83,1146.48,591.71,1142.87z"/>
		<path class="st0" d="M535.92,1187.47c-2.71,24.19,0.18,53.44,11.74,58.5c12.1,5.42,26.54-8.85,33.4-26.18
			c2.17-5.6-0.72-8.12-3.97-7.04l-0.18,0.18c-4.69,12.82-12.28,24.73-17.69,22.75c-5.06-1.99-3.61-30.51-0.72-48.21
			c1.99-12.82,4.15-22.75,6.5-31.23L541.7,1151C538.99,1161.65,537.18,1174.83,535.92,1187.47z"/>
		<line class="st1" x1="541.7" y1="1151" x2="564.99" y2="1156.23"/>
	</g>
</g>
<g>
	<g>
		<path class="st3" d="M621.42,1234.81c0,0.73-0.59,1.32-1.32,1.32h-32.73c-0.73,0-1.32-0.59-1.32-1.32v-23.04
			c0-0.73,0.59-1.32,1.32-1.32h32.73c0.73,0,1.32,0.59,1.32,1.32V1234.81z"/>
		<path class="st3" d="M581.81,1234.31v1.32c0,0.73,0.59,1.32,1.32,1.32h41.21c0.73,0,1.32-0.59,1.32-1.32v-1.32H581.81z"/>
		<path class="st0" d="M620.13,1232.65c0,0.15-0.13,0.27-0.29,0.27h-32.21c-0.16,0-0.29-0.12-0.29-0.27v-20.65
			c0-0.15,0.13-0.27,0.29-0.27h32.21c0.16,0,0.29,0.12,0.29,0.27V1232.65z"/>
		<rect x="589.26" y="1235.55" class="st0" width="3.96" height="0.19"/>
		<path class="st0" d="M586.51,1235.64c0,0.12-0.1,0.23-0.23,0.23s-0.23-0.1-0.23-0.23s0.1-0.23,0.23-0.23
			S586.51,1235.52,586.51,1235.64z"/>
		<path class="st0" d="M587.65,1235.64c0,0.12-0.1,0.23-0.23,0.23c-0.12,0-0.23-0.1-0.23-0.23s0.1-0.23,0.23-0.23
			C587.55,1235.42,587.65,1235.52,587.65,1235.64z"/>
		<g>
			<path class="st0" d="M658.43,1197.57c0,0.71-0.57,1.28-1.5,1.28h-34.95c-0.49,0-1.07-0.57-1.07-1.28v-11
				c0-0.71,0.57-1.28,1.28-1.28h34.95c0.71,0,1.28,0.57,1.28,1.28V1197.57z"/>
			<path class="st3" d="M656.93,1186.15c-8.68,0-34.09,0-34.52,0c-0.44,0-0.64,0.26-0.64,0.64c0,0.39,0,10.78,0,10.78
				c0.01,0.51,0.29,0.68,0.64,0.64h9.67v-5.56c0-0.71,0.57-1.28,1.28-1.28h12.4c0.71,0,1.28,0.57,1.28,1.28v5.56c0,0,9.65,0,9.88,0
				c0.24,0,0.68-0.19,0.64-0.64c0,0,0.01-10.38,0-10.78C657.57,1186.38,657.31,1186.15,656.93,1186.15z"/>
			<path class="st3" d="M646.35,1198.86v-6.03c0-0.35-0.29-0.64-0.64-0.64h-12.29c-0.35,0-0.64,0.5-0.64,0.86v5.82H646.35z"/>
			<path class="st3" d="M645.96,1183.46v-8.77c0-0.26-0.21-0.47-0.47-0.47h-11.64c-0.26,0-0.47,0.21-0.47,0.47v8.77H645.96z"/>
			<path class="st3" d="M647.31,1185.28v-1.5c0-0.52-0.42-0.94-0.94-0.94h-13.39c-0.52,0-0.94,0.42-0.94,0.94v1.5H647.31z"/>
			<path class="st3" d="M653.26,1188.74c-0.39,0-0.71-0.32-0.71-0.71s0.32-0.71,0.71-0.71c0.39,0,0.71,0.32,0.71,0.71
				S653.65,1188.74,653.26,1188.74z"/>
			<path class="st0" d="M653.8,1188.03c0,0.3-0.24,0.54-0.54,0.54c-0.3,0-0.54-0.24-0.54-0.54s0.24-0.54,0.54-0.54
				C653.55,1187.49,653.8,1187.73,653.8,1188.03z"/>
			<path class="st3" d="M655.42,1188.74c-0.39,0-0.71-0.32-0.71-0.71s0.32-0.71,0.71-0.71c0.39,0,0.71,0.32,0.71,0.71
				S655.82,1188.74,655.42,1188.74z"/>
			<path class="st0" d="M655.96,1188.03c0,0.3-0.24,0.54-0.54,0.54c-0.3,0-0.54-0.24-0.54-0.54s0.24-0.54,0.54-0.54
				C655.72,1187.49,655.96,1187.73,655.96,1188.03z"/>
			<g>
				<path class="st0" d="M646.66,1204.54c0,0.05-0.04,0.1-0.1,0.1h-14.02c-0.05,0-0.1-0.04-0.1-0.1l1.64-8.44
					c0-0.05,0.04-0.1,0.1-0.1h10.75c0.05,0,0.1,0.04,0.1,0.1L646.66,1204.54z"/>
				<path class="st3" d="M646.56,1204.79h-14.02c-0.14,0-0.25-0.11-0.25-0.25v-0.01l1.64-8.45c0.01-0.13,0.12-0.23,0.25-0.23h10.75
					c0.13,0,0.24,0.1,0.25,0.23l1.64,8.45v0.01C646.81,1204.68,646.7,1204.79,646.56,1204.79z M632.6,1204.48h13.89l-1.61-8.33
					h-10.66L632.6,1204.48z"/>
			</g>
			<g>
				<rect x="634.75" y="1172.07" class="st0" width="9.84" height="10.77"/>
				<path class="st3" d="M644.75,1182.99H634.6v-11.07h10.15V1182.99z M634.91,1182.69h9.53v-10.46h-9.53V1182.69z"/>
			</g>
		</g>
		<g>
			<path class="st3" d="M575.13,1173.44c0-0.45-0.37-0.82-0.82-0.82h-2.27c-0.45,0-0.82,0.37-0.82,0.82v0.31h3.91V1173.44z"/>
			<path class="st3" d="M604.48,1174.16h-29.35h-3.91h-1.07c-2.85,0-5.17,2.31-5.17,5.17v13.02c0,2.85,2.31,5.17,5.17,5.17h34.33
				c2.85,0,5.17-2.31,5.17-5.17v-13.02C609.65,1176.48,607.34,1174.16,604.48,1174.16z"/>
			<g>
				
					<ellipse transform="matrix(0.0965 -0.9953 0.9953 0.0965 -648.0245 1657.7698)" class="st3" cx="589.14" cy="1185.84" rx="9.17" ry="9.17"/>
				<path class="st0" d="M589.14,1196.13c-5.67,0-10.29-4.62-10.29-10.29c0-5.67,4.62-10.29,10.29-10.29s10.29,4.62,10.29,10.29
					C599.43,1191.51,594.82,1196.13,589.14,1196.13z M589.14,1177.78c-4.44,0-8.06,3.61-8.06,8.06c0,4.44,3.61,8.06,8.06,8.06
					c4.44,0,8.06-3.61,8.06-8.06C597.2,1181.4,593.59,1177.78,589.14,1177.78z"/>
			</g>
			<path class="st0" d="M593.38,1185.84c0-2.34-1.9-4.24-4.24-4.24c-2.34,0-4.24,1.9-4.24,4.24c0,2.34,1.9,4.24,4.24,4.24
				C591.49,1190.08,593.38,1188.18,593.38,1185.84z"/>
			<path class="st4" d="M605.18,1177.4c0,0.49-0.39,0.88-0.88,0.88h-4.54c-0.49,0-0.88-0.39-0.88-0.88v-1.03
				c0-0.49,0.39-0.88,0.88-0.88h4.54c0.49,0,0.88,0.39,0.88,0.88V1177.4z"/>
			
				<ellipse transform="matrix(0.1192 -0.9929 0.9929 0.1192 -658.4868 1629.3724)" class="st3" cx="589.14" cy="1185.84" rx="2.94" ry="2.94"/>
			<path class="st0" d="M597.72,1175.87c0,0.39-0.32,0.71-0.71,0.71c-0.39,0-0.71-0.32-0.71-0.71s0.32-0.71,0.71-0.71
				C597.4,1175.16,597.72,1175.48,597.72,1175.87z"/>
		</g>
	</g>
</g>
<g>
	<g>
		<path class="st3" d="M652.6,1217.77h-20.1c-3.51,0-6.35,2.84-6.35,6.35c0,3.51,2.84,6.35,6.35,6.35c3,0,5.51-2.09,6.17-4.89h7.75
			c0.66,2.8,3.17,4.89,6.17,4.89c3.51,0,6.35-2.84,6.35-6.35C658.94,1220.61,656.1,1217.77,652.6,1217.77z"/>
		<g>
			<circle class="st0" cx="649.64" cy="1224.12" r="1.41"/>
			<path class="st0" d="M653.59,1220.16c0.55,0.55,0.55,1.44,0,2c-0.55,0.55-1.44,0.55-2,0c-0.55-0.55-0.55-1.44,0-2
				C652.15,1219.61,653.04,1219.61,653.59,1220.16z"/>
			<circle class="st0" cx="652.6" cy="1227.07" r="1.41"/>
			<path class="st0" d="M656.55,1223.12c0.55,0.55,0.55,1.44,0,2c-0.55,0.55-1.44,0.55-2,0c-0.55-0.55-0.55-1.44,0-2
				C655.11,1222.57,656,1222.57,656.55,1223.12z"/>
		</g>
		<path class="st0" d="M634.93,1223.1h-1.81v-1.81c0-0.56-0.45-1.01-1.01-1.01s-1.01,0.45-1.01,1.01v1.81h-1.81
			c-0.56,0-1.01,0.45-1.01,1.01c0,0.56,0.45,1.01,1.01,1.01h1.81v1.81c0,0.56,0.45,1.01,1.01,1.01s1.01-0.45,1.01-1.01v-1.81h1.81
			c0.56,0,1.01-0.45,1.01-1.01C635.94,1223.56,635.49,1223.1,634.93,1223.1z"/>
	</g>
	<path class="st5" d="M653.24,1216.11c4.14,0,7.5,3.36,7.5,7.5"/>
	<path class="st5" d="M632.02,1216.11c-4.14,0-7.5,3.36-7.5,7.5"/>
</g>
</svg>
