<svg width="26" height="27" viewBox="0 0 26 27" fill="none" xmlns="http://www.w3.org/2000/svg">
<g clip-path="url(#clip0_376_2896)">
<rect width="26" height="26" transform="translate(0 0.5)" fill="white"/>
<path d="M20.0488 11.6279L13.9648 17.4519C13.6528 17.7639 13.3061 17.9199 12.9248 17.9199C12.5434 17.9199 12.1968 17.7639 11.8848 17.4519L5.80077 11.6279C5.52343 11.3506 5.38477 10.9953 5.38477 10.5619C5.38477 10.1286 5.52343 9.77326 5.80077 9.49592C6.45943 8.83726 7.13543 8.83726 7.82877 9.49592L12.9248 14.3839L18.0208 9.49592C18.7141 8.83726 19.3901 8.83726 20.0488 9.49592C20.3261 9.77326 20.4648 10.1286 20.4648 10.5619C20.4648 10.9953 20.3261 11.3506 20.0488 11.6279Z" fill="#21293C"/>
</g>
<defs>
<clipPath id="clip0_376_2896">
<rect width="26" height="26" fill="white" transform="translate(0 0.5)"/>
</clipPath>
</defs>
</svg>
