<svg width="1537" height="1519" viewBox="0 0 1537 1519" fill="none" xmlns="http://www.w3.org/2000/svg">
<g filter="url(#filter0_d_389_965)">
<path fill-rule="evenodd" clip-rule="evenodd" d="M336.526 1350.71C208.816 1322.95 115.782 1173 92.8724 1054.36C70.7046 939.555 236.054 874.522 222.412 759.737C205.923 621.01 -40.6199 497.748 12.299 376.437C60.1014 266.856 290.482 407.086 400.994 350.355C554.081 271.768 561.671 18.4253 743.586 1.032C910.587 -14.9353 1058.9 157.921 1193.53 274.578C1332.13 394.683 1552.26 525.333 1531.5 683.808C1507.7 865.442 1164.92 834.94 1098.26 1001.75C1038 1152.54 1361.25 1433.86 1204.92 1501.06C1033.75 1574.64 880.264 1216.65 679.274 1181.85C537.98 1157.39 477.378 1381.34 336.526 1350.71Z" fill="#E2CFFB"/>
</g>
<defs>
<filter id="filter0_d_389_965" x="0.869141" y="0" width="1536" height="1519" filterUnits="userSpaceOnUse" color-interpolation-filters="sRGB">
<feFlood flood-opacity="0" result="BackgroundImageFix"/>
<feColorMatrix in="SourceAlpha" type="matrix" values="0 0 0 0 0 0 0 0 0 0 0 0 0 0 0 0 0 0 127 0" result="hardAlpha"/>
<feOffset dy="4"/>
<feGaussianBlur stdDeviation="2"/>
<feComposite in2="hardAlpha" operator="out"/>
<feColorMatrix type="matrix" values="0 0 0 0 0 0 0 0 0 0 0 0 0 0 0 0 0 0 0.25 0"/>
<feBlend mode="normal" in2="BackgroundImageFix" result="effect1_dropShadow_389_965"/>
<feBlend mode="normal" in="SourceGraphic" in2="effect1_dropShadow_389_965" result="shape"/>
</filter>
</defs>
</svg>
