<svg width="59" height="10" viewBox="0 0 59 10" fill="none" xmlns="http://www.w3.org/2000/svg">
<path d="M4.68404 0.373444C4.86744 0.00182116 5.39737 0.00182053 5.58077 0.373443L6.77942 2.80218C6.85226 2.94975 6.99304 3.05203 7.15589 3.0757L9.83616 3.46516C10.2463 3.52476 10.41 4.02874 10.1133 4.31801L8.17381 6.20852C8.05597 6.32339 8.00219 6.48889 8.03001 6.65108L8.48785 9.32052C8.55791 9.72897 8.12919 10.0405 7.76238 9.84761L5.36508 8.58727C5.21941 8.51069 5.0454 8.51069 4.89973 8.58727L2.50243 9.84761C2.13562 10.0405 1.7069 9.72898 1.77695 9.32052L2.2348 6.65108C2.26262 6.48889 2.20884 6.32339 2.091 6.20852L0.151541 4.31801C-0.145218 4.02874 0.0185367 3.52476 0.428647 3.46516L3.10891 3.0757C3.27177 3.05203 3.41255 2.94975 3.48538 2.80218L4.68404 0.373444ZM16.684 0.373444C16.8674 0.00182116 17.3974 0.00182053 17.5808 0.373443L18.7794 2.80218C18.8523 2.94975 18.993 3.05203 19.1559 3.0757L21.8362 3.46516C22.2463 3.52476 22.41 4.02874 22.1133 4.31801L20.1738 6.20852C20.056 6.32339 20.0022 6.48889 20.03 6.65108L20.4879 9.32052C20.5579 9.72897 20.1292 10.0405 19.7624 9.84761L17.3651 8.58727C17.2194 8.51069 17.0454 8.51069 16.8997 8.58727L14.5024 9.84761C14.1356 10.0405 13.7069 9.72898 13.777 9.32052L14.2348 6.65108C14.2626 6.48889 14.2088 6.32339 14.091 6.20852L12.1515 4.31801C11.8548 4.02874 12.0185 3.52476 12.4286 3.46516L15.1089 3.0757C15.2718 3.05203 15.4126 2.94975 15.4854 2.80218L16.684 0.373444ZM28.684 0.373444C28.8674 0.00182116 29.3974 0.00182053 29.5808 0.373443L30.7794 2.80218C30.8523 2.94975 30.993 3.05203 31.1559 3.0757L33.8362 3.46516C34.2463 3.52476 34.41 4.02874 34.1133 4.31801L32.1738 6.20852C32.056 6.32339 32.0022 6.48889 32.03 6.65108L32.4879 9.32052C32.5579 9.72897 32.1292 10.0405 31.7624 9.84761L29.3651 8.58727C29.2194 8.51069 29.0454 8.51069 28.8997 8.58727L26.5024 9.84761C26.1356 10.0405 25.7069 9.72898 25.777 9.32052L26.2348 6.65108C26.2626 6.48889 26.2088 6.32339 26.091 6.20852L24.1515 4.31801C23.8548 4.02874 24.0185 3.52476 24.4286 3.46516L27.1089 3.0757C27.2718 3.05203 27.4126 2.94975 27.4854 2.80218L28.684 0.373444ZM40.684 0.373444C40.8674 0.00182116 41.3974 0.00182053 41.5808 0.373443L42.7794 2.80218C42.8523 2.94975 42.993 3.05203 43.1559 3.0757L45.8362 3.46516C46.2463 3.52476 46.41 4.02874 46.1133 4.31801L44.1738 6.20852C44.056 6.32339 44.0022 6.48889 44.03 6.65108L44.4879 9.32052C44.5579 9.72897 44.1292 10.0405 43.7624 9.84761L41.3651 8.58727C41.2194 8.51069 41.0454 8.51069 40.8997 8.58727L38.5024 9.84761C38.1356 10.0405 37.7069 9.72898 37.777 9.32052L38.2348 6.65108C38.2626 6.48889 38.2088 6.32339 38.091 6.20852L36.1515 4.31801C35.8548 4.02874 36.0185 3.52476 36.4286 3.46516L39.1089 3.0757C39.2718 3.05203 39.4126 2.94975 39.4854 2.80218L40.684 0.373444ZM52.684 0.373444C52.8674 0.00182116 53.3974 0.00182053 53.5808 0.373443L54.7794 2.80218C54.8523 2.94975 54.993 3.05203 55.1559 3.0757L57.8362 3.46516C58.2463 3.52476 58.41 4.02874 58.1133 4.31801L56.1738 6.20852C56.056 6.32339 56.0022 6.48889 56.03 6.65108L56.4879 9.32052C56.5579 9.72897 56.1292 10.0405 55.7624 9.84761L53.3651 8.58727C53.2194 8.51069 53.0454 8.51069 52.8997 8.58727L50.5024 9.84761C50.1356 10.0405 49.7069 9.72898 49.777 9.32052L50.2348 6.65108C50.2626 6.48889 50.2088 6.32339 50.091 6.20852L48.1515 4.31801C47.8548 4.02874 48.0185 3.52476 48.4286 3.46516L51.1089 3.0757C51.2718 3.05203 51.4126 2.94975 51.4854 2.80218L52.684 0.373444Z" fill="#FFC700"/>
<path d="M4.68404 0.373444C4.86744 0.00182116 5.39737 0.00182053 5.58077 0.373443L6.77942 2.80218C6.85226 2.94975 6.99304 3.05203 7.15589 3.0757L9.83616 3.46516C10.2463 3.52476 10.41 4.02874 10.1133 4.31801L8.17381 6.20852C8.05597 6.32339 8.00219 6.48889 8.03001 6.65108L8.48785 9.32052C8.55791 9.72897 8.12919 10.0405 7.76238 9.84761L5.36508 8.58727C5.21941 8.51069 5.0454 8.51069 4.89973 8.58727L2.50243 9.84761C2.13562 10.0405 1.7069 9.72898 1.77695 9.32052L2.2348 6.65108C2.26262 6.48889 2.20884 6.32339 2.091 6.20852L0.151541 4.31801C-0.145218 4.02874 0.0185367 3.52476 0.428647 3.46516L3.10891 3.0757C3.27177 3.05203 3.41255 2.94975 3.48538 2.80218L4.68404 0.373444ZM16.684 0.373444C16.8674 0.00182116 17.3974 0.00182053 17.5808 0.373443L18.7794 2.80218C18.8523 2.94975 18.993 3.05203 19.1559 3.0757L21.8362 3.46516C22.2463 3.52476 22.41 4.02874 22.1133 4.31801L20.1738 6.20852C20.056 6.32339 20.0022 6.48889 20.03 6.65108L20.4879 9.32052C20.5579 9.72897 20.1292 10.0405 19.7624 9.84761L17.3651 8.58727C17.2194 8.51069 17.0454 8.51069 16.8997 8.58727L14.5024 9.84761C14.1356 10.0405 13.7069 9.72898 13.777 9.32052L14.2348 6.65108C14.2626 6.48889 14.2088 6.32339 14.091 6.20852L12.1515 4.31801C11.8548 4.02874 12.0185 3.52476 12.4286 3.46516L15.1089 3.0757C15.2718 3.05203 15.4126 2.94975 15.4854 2.80218L16.684 0.373444ZM28.684 0.373444C28.8674 0.00182116 29.3974 0.00182053 29.5808 0.373443L30.7794 2.80218C30.8523 2.94975 30.993 3.05203 31.1559 3.0757L33.8362 3.46516C34.2463 3.52476 34.41 4.02874 34.1133 4.31801L32.1738 6.20852C32.056 6.32339 32.0022 6.48889 32.03 6.65108L32.4879 9.32052C32.5579 9.72897 32.1292 10.0405 31.7624 9.84761L29.3651 8.58727C29.2194 8.51069 29.0454 8.51069 28.8997 8.58727L26.5024 9.84761C26.1356 10.0405 25.7069 9.72898 25.777 9.32052L26.2348 6.65108C26.2626 6.48889 26.2088 6.32339 26.091 6.20852L24.1515 4.31801C23.8548 4.02874 24.0185 3.52476 24.4286 3.46516L27.1089 3.0757C27.2718 3.05203 27.4126 2.94975 27.4854 2.80218L28.684 0.373444ZM40.684 0.373444C40.8674 0.00182116 41.3974 0.00182053 41.5808 0.373443L42.7794 2.80218C42.8523 2.94975 42.993 3.05203 43.1559 3.0757L45.8362 3.46516C46.2463 3.52476 46.41 4.02874 46.1133 4.31801L44.1738 6.20852C44.056 6.32339 44.0022 6.48889 44.03 6.65108L44.4879 9.32052C44.5579 9.72897 44.1292 10.0405 43.7624 9.84761L41.3651 8.58727C41.2194 8.51069 41.0454 8.51069 40.8997 8.58727L38.5024 9.84761C38.1356 10.0405 37.7069 9.72898 37.777 9.32052L38.2348 6.65108C38.2626 6.48889 38.2088 6.32339 38.091 6.20852L36.1515 4.31801C35.8548 4.02874 36.0185 3.52476 36.4286 3.46516L39.1089 3.0757C39.2718 3.05203 39.4126 2.94975 39.4854 2.80218L40.684 0.373444ZM52.684 0.373444C52.8674 0.00182116 53.3974 0.00182053 53.5808 0.373443L54.7794 2.80218C54.8523 2.94975 54.993 3.05203 55.1559 3.0757L57.8362 3.46516C58.2463 3.52476 58.41 4.02874 58.1133 4.31801L56.1738 6.20852C56.056 6.32339 56.0022 6.48889 56.03 6.65108L56.4879 9.32052C56.5579 9.72897 56.1292 10.0405 55.7624 9.84761L53.3651 8.58727C53.2194 8.51069 53.0454 8.51069 52.8997 8.58727L50.5024 9.84761C50.1356 10.0405 49.7069 9.72898 49.777 9.32052L50.2348 6.65108C50.2626 6.48889 50.2088 6.32339 50.091 6.20852L48.1515 4.31801C47.8548 4.02874 48.0185 3.52476 48.4286 3.46516L51.1089 3.0757C51.2718 3.05203 51.4126 2.94975 51.4854 2.80218L52.684 0.373444Z" fill="#FFC700"/>
<path d="M4.68404 0.373444C4.86744 0.00182116 5.39737 0.00182053 5.58077 0.373443L6.77942 2.80218C6.85226 2.94975 6.99304 3.05203 7.15589 3.0757L9.83616 3.46516C10.2463 3.52476 10.41 4.02874 10.1133 4.31801L8.17381 6.20852C8.05597 6.32339 8.00219 6.48889 8.03001 6.65108L8.48785 9.32052C8.55791 9.72897 8.12919 10.0405 7.76238 9.84761L5.36508 8.58727C5.21941 8.51069 5.0454 8.51069 4.89973 8.58727L2.50243 9.84761C2.13562 10.0405 1.7069 9.72898 1.77695 9.32052L2.2348 6.65108C2.26262 6.48889 2.20884 6.32339 2.091 6.20852L0.151541 4.31801C-0.145218 4.02874 0.0185367 3.52476 0.428647 3.46516L3.10891 3.0757C3.27177 3.05203 3.41255 2.94975 3.48538 2.80218L4.68404 0.373444ZM16.684 0.373444C16.8674 0.00182116 17.3974 0.00182053 17.5808 0.373443L18.7794 2.80218C18.8523 2.94975 18.993 3.05203 19.1559 3.0757L21.8362 3.46516C22.2463 3.52476 22.41 4.02874 22.1133 4.31801L20.1738 6.20852C20.056 6.32339 20.0022 6.48889 20.03 6.65108L20.4879 9.32052C20.5579 9.72897 20.1292 10.0405 19.7624 9.84761L17.3651 8.58727C17.2194 8.51069 17.0454 8.51069 16.8997 8.58727L14.5024 9.84761C14.1356 10.0405 13.7069 9.72898 13.777 9.32052L14.2348 6.65108C14.2626 6.48889 14.2088 6.32339 14.091 6.20852L12.1515 4.31801C11.8548 4.02874 12.0185 3.52476 12.4286 3.46516L15.1089 3.0757C15.2718 3.05203 15.4126 2.94975 15.4854 2.80218L16.684 0.373444ZM28.684 0.373444C28.8674 0.00182116 29.3974 0.00182053 29.5808 0.373443L30.7794 2.80218C30.8523 2.94975 30.993 3.05203 31.1559 3.0757L33.8362 3.46516C34.2463 3.52476 34.41 4.02874 34.1133 4.31801L32.1738 6.20852C32.056 6.32339 32.0022 6.48889 32.03 6.65108L32.4879 9.32052C32.5579 9.72897 32.1292 10.0405 31.7624 9.84761L29.3651 8.58727C29.2194 8.51069 29.0454 8.51069 28.8997 8.58727L26.5024 9.84761C26.1356 10.0405 25.7069 9.72898 25.777 9.32052L26.2348 6.65108C26.2626 6.48889 26.2088 6.32339 26.091 6.20852L24.1515 4.31801C23.8548 4.02874 24.0185 3.52476 24.4286 3.46516L27.1089 3.0757C27.2718 3.05203 27.4126 2.94975 27.4854 2.80218L28.684 0.373444ZM40.684 0.373444C40.8674 0.00182116 41.3974 0.00182053 41.5808 0.373443L42.7794 2.80218C42.8523 2.94975 42.993 3.05203 43.1559 3.0757L45.8362 3.46516C46.2463 3.52476 46.41 4.02874 46.1133 4.31801L44.1738 6.20852C44.056 6.32339 44.0022 6.48889 44.03 6.65108L44.4879 9.32052C44.5579 9.72897 44.1292 10.0405 43.7624 9.84761L41.3651 8.58727C41.2194 8.51069 41.0454 8.51069 40.8997 8.58727L38.5024 9.84761C38.1356 10.0405 37.7069 9.72898 37.777 9.32052L38.2348 6.65108C38.2626 6.48889 38.2088 6.32339 38.091 6.20852L36.1515 4.31801C35.8548 4.02874 36.0185 3.52476 36.4286 3.46516L39.1089 3.0757C39.2718 3.05203 39.4126 2.94975 39.4854 2.80218L40.684 0.373444ZM52.684 0.373444C52.8674 0.00182116 53.3974 0.00182053 53.5808 0.373443L54.7794 2.80218C54.8523 2.94975 54.993 3.05203 55.1559 3.0757L57.8362 3.46516C58.2463 3.52476 58.41 4.02874 58.1133 4.31801L56.1738 6.20852C56.056 6.32339 56.0022 6.48889 56.03 6.65108L56.4879 9.32052C56.5579 9.72897 56.1292 10.0405 55.7624 9.84761L53.3651 8.58727C53.2194 8.51069 53.0454 8.51069 52.8997 8.58727L50.5024 9.84761C50.1356 10.0405 49.7069 9.72898 49.777 9.32052L50.2348 6.65108C50.2626 6.48889 50.2088 6.32339 50.091 6.20852L48.1515 4.31801C47.8548 4.02874 48.0185 3.52476 48.4286 3.46516L51.1089 3.0757C51.2718 3.05203 51.4126 2.94975 51.4854 2.80218L52.684 0.373444Z" fill="#FFC700"/>
<path d="M4.68404 0.373444C4.86744 0.00182116 5.39737 0.00182053 5.58077 0.373443L6.77942 2.80218C6.85226 2.94975 6.99304 3.05203 7.15589 3.0757L9.83616 3.46516C10.2463 3.52476 10.41 4.02874 10.1133 4.31801L8.17381 6.20852C8.05597 6.32339 8.00219 6.48889 8.03001 6.65108L8.48785 9.32052C8.55791 9.72897 8.12919 10.0405 7.76238 9.84761L5.36508 8.58727C5.21941 8.51069 5.0454 8.51069 4.89973 8.58727L2.50243 9.84761C2.13562 10.0405 1.7069 9.72898 1.77695 9.32052L2.2348 6.65108C2.26262 6.48889 2.20884 6.32339 2.091 6.20852L0.151541 4.31801C-0.145218 4.02874 0.0185367 3.52476 0.428647 3.46516L3.10891 3.0757C3.27177 3.05203 3.41255 2.94975 3.48538 2.80218L4.68404 0.373444ZM16.684 0.373444C16.8674 0.00182116 17.3974 0.00182053 17.5808 0.373443L18.7794 2.80218C18.8523 2.94975 18.993 3.05203 19.1559 3.0757L21.8362 3.46516C22.2463 3.52476 22.41 4.02874 22.1133 4.31801L20.1738 6.20852C20.056 6.32339 20.0022 6.48889 20.03 6.65108L20.4879 9.32052C20.5579 9.72897 20.1292 10.0405 19.7624 9.84761L17.3651 8.58727C17.2194 8.51069 17.0454 8.51069 16.8997 8.58727L14.5024 9.84761C14.1356 10.0405 13.7069 9.72898 13.777 9.32052L14.2348 6.65108C14.2626 6.48889 14.2088 6.32339 14.091 6.20852L12.1515 4.31801C11.8548 4.02874 12.0185 3.52476 12.4286 3.46516L15.1089 3.0757C15.2718 3.05203 15.4126 2.94975 15.4854 2.80218L16.684 0.373444ZM28.684 0.373444C28.8674 0.00182116 29.3974 0.00182053 29.5808 0.373443L30.7794 2.80218C30.8523 2.94975 30.993 3.05203 31.1559 3.0757L33.8362 3.46516C34.2463 3.52476 34.41 4.02874 34.1133 4.31801L32.1738 6.20852C32.056 6.32339 32.0022 6.48889 32.03 6.65108L32.4879 9.32052C32.5579 9.72897 32.1292 10.0405 31.7624 9.84761L29.3651 8.58727C29.2194 8.51069 29.0454 8.51069 28.8997 8.58727L26.5024 9.84761C26.1356 10.0405 25.7069 9.72898 25.777 9.32052L26.2348 6.65108C26.2626 6.48889 26.2088 6.32339 26.091 6.20852L24.1515 4.31801C23.8548 4.02874 24.0185 3.52476 24.4286 3.46516L27.1089 3.0757C27.2718 3.05203 27.4126 2.94975 27.4854 2.80218L28.684 0.373444ZM40.684 0.373444C40.8674 0.00182116 41.3974 0.00182053 41.5808 0.373443L42.7794 2.80218C42.8523 2.94975 42.993 3.05203 43.1559 3.0757L45.8362 3.46516C46.2463 3.52476 46.41 4.02874 46.1133 4.31801L44.1738 6.20852C44.056 6.32339 44.0022 6.48889 44.03 6.65108L44.4879 9.32052C44.5579 9.72897 44.1292 10.0405 43.7624 9.84761L41.3651 8.58727C41.2194 8.51069 41.0454 8.51069 40.8997 8.58727L38.5024 9.84761C38.1356 10.0405 37.7069 9.72898 37.777 9.32052L38.2348 6.65108C38.2626 6.48889 38.2088 6.32339 38.091 6.20852L36.1515 4.31801C35.8548 4.02874 36.0185 3.52476 36.4286 3.46516L39.1089 3.0757C39.2718 3.05203 39.4126 2.94975 39.4854 2.80218L40.684 0.373444ZM52.684 0.373444C52.8674 0.00182116 53.3974 0.00182053 53.5808 0.373443L54.7794 2.80218C54.8523 2.94975 54.993 3.05203 55.1559 3.0757L57.8362 3.46516C58.2463 3.52476 58.41 4.02874 58.1133 4.31801L56.1738 6.20852C56.056 6.32339 56.0022 6.48889 56.03 6.65108L56.4879 9.32052C56.5579 9.72897 56.1292 10.0405 55.7624 9.84761L53.3651 8.58727C53.2194 8.51069 53.0454 8.51069 52.8997 8.58727L50.5024 9.84761C50.1356 10.0405 49.7069 9.72898 49.777 9.32052L50.2348 6.65108C50.2626 6.48889 50.2088 6.32339 50.091 6.20852L48.1515 4.31801C47.8548 4.02874 48.0185 3.52476 48.4286 3.46516L51.1089 3.0757C51.2718 3.05203 51.4126 2.94975 51.4854 2.80218L52.684 0.373444Z" fill="#FFC700"/>
<path d="M4.68404 0.373444C4.86744 0.00182116 5.39737 0.00182053 5.58077 0.373443L6.77942 2.80218C6.85226 2.94975 6.99304 3.05203 7.15589 3.0757L9.83616 3.46516C10.2463 3.52476 10.41 4.02874 10.1133 4.31801L8.17381 6.20852C8.05597 6.32339 8.00219 6.48889 8.03001 6.65108L8.48785 9.32052C8.55791 9.72897 8.12919 10.0405 7.76238 9.84761L5.36508 8.58727C5.21941 8.51069 5.0454 8.51069 4.89973 8.58727L2.50243 9.84761C2.13562 10.0405 1.7069 9.72898 1.77695 9.32052L2.2348 6.65108C2.26262 6.48889 2.20884 6.32339 2.091 6.20852L0.151541 4.31801C-0.145218 4.02874 0.0185367 3.52476 0.428647 3.46516L3.10891 3.0757C3.27177 3.05203 3.41255 2.94975 3.48538 2.80218L4.68404 0.373444ZM16.684 0.373444C16.8674 0.00182116 17.3974 0.00182053 17.5808 0.373443L18.7794 2.80218C18.8523 2.94975 18.993 3.05203 19.1559 3.0757L21.8362 3.46516C22.2463 3.52476 22.41 4.02874 22.1133 4.31801L20.1738 6.20852C20.056 6.32339 20.0022 6.48889 20.03 6.65108L20.4879 9.32052C20.5579 9.72897 20.1292 10.0405 19.7624 9.84761L17.3651 8.58727C17.2194 8.51069 17.0454 8.51069 16.8997 8.58727L14.5024 9.84761C14.1356 10.0405 13.7069 9.72898 13.777 9.32052L14.2348 6.65108C14.2626 6.48889 14.2088 6.32339 14.091 6.20852L12.1515 4.31801C11.8548 4.02874 12.0185 3.52476 12.4286 3.46516L15.1089 3.0757C15.2718 3.05203 15.4126 2.94975 15.4854 2.80218L16.684 0.373444ZM28.684 0.373444C28.8674 0.00182116 29.3974 0.00182053 29.5808 0.373443L30.7794 2.80218C30.8523 2.94975 30.993 3.05203 31.1559 3.0757L33.8362 3.46516C34.2463 3.52476 34.41 4.02874 34.1133 4.31801L32.1738 6.20852C32.056 6.32339 32.0022 6.48889 32.03 6.65108L32.4879 9.32052C32.5579 9.72897 32.1292 10.0405 31.7624 9.84761L29.3651 8.58727C29.2194 8.51069 29.0454 8.51069 28.8997 8.58727L26.5024 9.84761C26.1356 10.0405 25.7069 9.72898 25.777 9.32052L26.2348 6.65108C26.2626 6.48889 26.2088 6.32339 26.091 6.20852L24.1515 4.31801C23.8548 4.02874 24.0185 3.52476 24.4286 3.46516L27.1089 3.0757C27.2718 3.05203 27.4126 2.94975 27.4854 2.80218L28.684 0.373444ZM40.684 0.373444C40.8674 0.00182116 41.3974 0.00182053 41.5808 0.373443L42.7794 2.80218C42.8523 2.94975 42.993 3.05203 43.1559 3.0757L45.8362 3.46516C46.2463 3.52476 46.41 4.02874 46.1133 4.31801L44.1738 6.20852C44.056 6.32339 44.0022 6.48889 44.03 6.65108L44.4879 9.32052C44.5579 9.72897 44.1292 10.0405 43.7624 9.84761L41.3651 8.58727C41.2194 8.51069 41.0454 8.51069 40.8997 8.58727L38.5024 9.84761C38.1356 10.0405 37.7069 9.72898 37.777 9.32052L38.2348 6.65108C38.2626 6.48889 38.2088 6.32339 38.091 6.20852L36.1515 4.31801C35.8548 4.02874 36.0185 3.52476 36.4286 3.46516L39.1089 3.0757C39.2718 3.05203 39.4126 2.94975 39.4854 2.80218L40.684 0.373444ZM52.684 0.373444C52.8674 0.00182116 53.3974 0.00182053 53.5808 0.373443L54.7794 2.80218C54.8523 2.94975 54.993 3.05203 55.1559 3.0757L57.8362 3.46516C58.2463 3.52476 58.41 4.02874 58.1133 4.31801L56.1738 6.20852C56.056 6.32339 56.0022 6.48889 56.03 6.65108L56.4879 9.32052C56.5579 9.72897 56.1292 10.0405 55.7624 9.84761L53.3651 8.58727C53.2194 8.51069 53.0454 8.51069 52.8997 8.58727L50.5024 9.84761C50.1356 10.0405 49.7069 9.72898 49.777 9.32052L50.2348 6.65108C50.2626 6.48889 50.2088 6.32339 50.091 6.20852L48.1515 4.31801C47.8548 4.02874 48.0185 3.52476 48.4286 3.46516L51.1089 3.0757C51.2718 3.05203 51.4126 2.94975 51.4854 2.80218L52.684 0.373444Z" fill="#FFC700"/>
</svg>
