<svg xmlns="http://www.w3.org/2000/svg" viewBox="0 0 737.5 205.99"><defs><style>.cls-1{fill:#ffda00;}.cls-2,.cls-3{stroke:#000;stroke-linecap:round;stroke-linejoin:round;stroke-width:0;}.cls-3{fill:none;}</style></defs><g id="Layer_2" data-name="Layer 2"><g id="Layer_1-2" data-name="Layer 1"><path d="M99.45,127.1c6.32,19,13.54,49.47,20.77,50,7,.73,18.41-10.29,22.92-22.92h.37c3.25-1.27,6.13,1.08,3.79,6.85-6.86,17.7-23.47,30-35.75,28.35-13.18-1.62-25.28-33-33.4-56.87-3.07.36-6,.72-8.85.9-.54,4.7-1.08,9.57-1.44,15.17-3.79,40.8-21.13,53.08-32.32,43.15a25.51,25.51,0,0,0,4.33-8.85C54.5,138.66,50,81.61,62.62,66.26c13-15.89,29.25-4.87,29.25,2.53,0,0-13.36.54-21.3,54.52,25.81-.9,47.3-19.68,52-37.37,5.78-23.11-12.45-33.4-37.19-33.4-37.37,0-58.68,18.59-65,37.37-6.32,18.42,9.93,27.26,21.3,22.39,0,0,4.87,23.65-15.35,23.47-18.77-.36-33.76-19-22.38-45C16.22,62.47,50.35,41.17,93.13,39.9c34.49-1.08,60.49,12.1,53.44,41.71C141.52,103.27,122.2,119,99.45,127.1Z"/><path d="M171.13,157.79c20-8.66,21.12-43,13.9-44.95-7.4-2.17-15,16.07-18.24,28.53-4,15-2.88,35.38,11.38,38.27,15.16,3.07,33.22-9.21,38.63-24.19a.18.18,0,0,1,.18-.18c3.44-1.08,6.14,1.26,4,7-7.41,18.78-30.33,32.86-53.8,27.8-13.73-3.07-28.71-20.4-24-46,4.88-25.63,23.65-43,47.12-38.81,33.41,6.14,23.66,45.13-19.49,59.4C170.77,164.66,164.27,160.87,171.13,157.79Z"/><path d="M223.12,103.45c12.1-7.94,23.29,4.34,23.29,4.34s-4,3.07-7.4,24.55c13.18-24,26-33.4,37.37-29.43,8.49,2.89,9.39,17.33,3.43,42.61-6.86,28.89-9.57,45.5-5.23,47.12,4.15,1.44,8.84-2.89,12.64-13.36l.18-.18c3.25-1.26,6.13,1.26,4.15,6.86-6.86,17-19.32,23.11-29.61,18.6-10.11-4.34-13.54-22.21-4.88-55.43,5.78-21.49,5.6-28.89,1.81-30.33-3.25-.9-11.37,7.4-22.57,33.94-4.15,34.3-9.57,39.36-22.75,34.3,0,0-.72-2.34-.72-8.48C212.65,136.85,211.75,111,223.12,103.45Z"/><path d="M511.29,157.79c20.05-8.66,21.13-43,13.91-44.95-7.41-2.17-15,16.07-18.24,28.53-4,15-2.89,35.38,11.38,38.27,15.16,3.07,33.22-9.21,38.63-24.19a.18.18,0,0,1,.18-.18c3.43-1.08,6.14,1.26,4,7-7.4,18.78-30.33,32.86-53.8,27.8-13.72-3.07-28.7-20.4-24-46,4.87-25.63,23.65-43,47.12-38.81,33.4,6.14,23.65,45.13-19.5,59.4C510.93,164.66,504.43,160.87,511.29,157.79Z"/><path d="M599.76,144.07c-13-.9-9.57-18.23-9.57-18.23,8.67,5,12.64.36,13.9-4.69.91-4.7-1.08-9.75-6.5-10.29-7.22-.91-15.34,12.81-20,30.33-4.69,18.41-1.08,36.28,9,38.27,13.36,2.71,32.5-13,36.47-24.19h.36c3.07-1.27,6.14,1.08,3.79,6.86-6.14,15.53-30,32.5-51.81,27.8-13.55-2.89-26.18-20.4-21.49-45.86,5.06-26.72,28-43.69,47.12-39,11.74,3.07,18.06,11.73,16.43,22.56C616.19,137.21,608.6,145,599.76,144.07Z"/><path d="M645.08,153.82C640.2,187,635.51,192.1,622.69,187c0,0-.91-2.52-.91-8.66,0-25.64,3.07-54.89,7.59-82.33-37.55,12.82-61.75-13.54-44.6-47.12,24.38-47.84,96.41-76.55,79.62-9.21-2.71,10.29-4.69,19.86-6.68,28.89,17.88-8,40.08-15.17,61.57-8.31,23.29,7.59,21.12,29.61,10.83,37.19,0,0-4.15-10.83-22.93-16.24-15.52-4.7-33.94-4.16-52.18,3.06-2.7,15.71-4.69,31.06-7,48.57,12.28-21.3,27.63-30.87,36.83-28.71,7.59,2.17,10.11,16.07,4,41.35-3.8,16.43-5.06,31.23.72,32.5s15.52-9.75,20.22-22.75h.18c3.25-1.08,6.14,1.26,4,7-7,17.51-22,29.79-34.3,28.34C667.1,189,659.7,173.5,666.2,149.13c5.59-21.49,4.33-28,.72-28.71C663.49,119.52,656.27,126.56,645.08,153.82Zm-13-72.94c3.61-19.49,7.76-37.19,11.91-51.45,8.49-30.15-21.12-24-38.82,12.82C594.16,65,603.55,91.9,632.08,80.88Z"/><path class="cls-1" d="M371.31,91.53l-13.1,16.59a1.72,1.72,0,0,1-3.06-.87l-3.48-29.68A1.72,1.72,0,0,1,354.45,76L371,89.11A1.72,1.72,0,0,1,371.31,91.53Z"/><path class="cls-1" d="M395.05,91.53l13.1,16.59a1.72,1.72,0,0,0,3.06-.87l3.49-29.68A1.73,1.73,0,0,0,411.92,76l-16.58,13.1A1.72,1.72,0,0,0,395.05,91.53Z"/><path d="M453.22,69.51c-13.54-12.46-24.73-.72-24.73-.72s3.43,5.23,7.4,15.89L459,78.54A27.92,27.92,0,0,0,453.22,69.51Z"/><line class="cls-2" x1="435.89" y1="84.68" x2="459" y2="78.54"/><path d="M447.09,130c2.88,17.7,4.33,46.22-.73,48.21-5.41,2-13-9.93-17.69-22.75l-.18-.18c-3.25-1.08-6.14,1.44-4,7,6.86,17.33,21.3,31.59,33.4,26.18,11.55-5.06,14.44-34.3,11.73-58.5-1.26-12.64-3.07-25.82-5.78-36.47l-23.28,5.24A274,274,0,0,1,447.09,130Z"/><path class="cls-1" d="M523.45,64.27c-17.87-2.52-41.7,6.86-64.45,14.27l-23.11,6.14c-7,1.26-13.72,2-19.68,1.08l-2.34-.36c-8.13,3.61-7.41,12.64,4.51,15,5.24,1.09,13.18,0,22.21-1.62l23.28-5.24c18.42-4.33,37.74-8.66,51.28-6.5,19.14,2.89,25.28,11.92,25.28,11.92C549.27,89.73,547.65,67.7,523.45,64.27Z"/><line class="cls-3" x1="440.59" y1="98.76" x2="463.87" y2="93.52"/><path d="M338,68.79s-11.2-11.74-24.74.72a27.92,27.92,0,0,0-5.77,9l23.1,6.14C334.52,74,338,68.79,338,68.79Z"/><path class="cls-1" d="M352.57,85.4l-2.35.36c-6,.9-12.63.18-19.68-1.08l-23.1-6.14C284.69,71.13,260.86,61.75,243,64.27c-24.19,3.43-25.82,25.46-17,34.67,0,0,6.14-9,25.28-11.92,13.54-2.16,32.86,2.17,51.27,6.5l23.29,5.24c9,1.62,17,2.71,22.21,1.62C360,98,360.7,89,352.57,85.4Z"/><path d="M296.78,130c-2.7,24.2.18,53.44,11.74,58.5,12.09,5.41,26.54-8.85,33.4-26.18,2.17-5.6-.72-8.12-4-7l-.18.18c-4.7,12.82-12.28,24.73-17.7,22.75-5.05-2-3.61-30.51-.72-48.21a271.84,271.84,0,0,1,6.5-31.23l-23.29-5.24C299.85,104.17,298.05,117.35,296.78,130Z"/><line class="cls-3" x1="302.56" y1="93.52" x2="325.85" y2="98.76"/></g></g></svg>