<svg width="16" height="16" viewBox="0 0 16 16" fill="none" xmlns="http://www.w3.org/2000/svg">
<path d="M7.31357 4.17217C6.72826 5.12728 5.99965 5.66683 5.51008 5.67894C5.02051 5.69106 4.70994 6.0628 4.70994 6.80243V13.2625C4.70994 14.0021 5.06887 14.6668 5.77679 14.6668H12.8448C13.422 14.6668 14.0256 14.1248 14.1784 13.5434L15.2453 7.36418C15.4684 6.51338 15.2888 5.68322 14.4451 5.67894H10.5777C10.5777 5.67894 11.2325 4.13198 11.3829 3.29144C11.817 0.853638 9.85593 -0.377627 8.71065 0.904124C8.48789 1.15288 8.37929 1.51744 8.23938 1.98713C8.06765 2.56365 7.84873 3.29858 7.31357 4.17217ZM1.77604 5.67899C1.40785 5.67899 1.10938 5.97747 1.10938 6.34566V14.0002C1.10938 14.3684 1.40785 14.6669 1.77604 14.6669H3.33301C3.7012 14.6669 3.99967 14.3684 3.99967 14.0002V6.34566C3.99967 5.97747 3.7012 5.67899 3.33301 5.67899H1.77604Z" fill="black" fill-opacity="0.3"/>
<path d="M7.31357 4.17217C6.72826 5.12728 5.99965 5.66683 5.51008 5.67894C5.02051 5.69106 4.70994 6.0628 4.70994 6.80243V13.2625C4.70994 14.0021 5.06887 14.6668 5.77679 14.6668H12.8448C13.422 14.6668 14.0256 14.1248 14.1784 13.5434L15.2453 7.36418C15.4684 6.51338 15.2888 5.68322 14.4451 5.67894H10.5777C10.5777 5.67894 11.2325 4.13198 11.3829 3.29144C11.817 0.853638 9.85593 -0.377627 8.71065 0.904124C8.48789 1.15288 8.37929 1.51744 8.23938 1.98713C8.06765 2.56365 7.84873 3.29858 7.31357 4.17217ZM1.77604 5.67899C1.40785 5.67899 1.10938 5.97747 1.10938 6.34566V14.0002C1.10938 14.3684 1.40785 14.6669 1.77604 14.6669H3.33301C3.7012 14.6669 3.99967 14.3684 3.99967 14.0002V6.34566C3.99967 5.97747 3.7012 5.67899 3.33301 5.67899H1.77604Z" fill="black" fill-opacity="0.3"/>
</svg>
