<svg width="26" height="26" viewBox="0 0 26 26" fill="none" xmlns="http://www.w3.org/2000/svg">
<g clip-path="url(#clip0_376_2920)">
<rect width="26" height="26" fill="white"/>
<path d="M20.0488 11.1279L13.9648 16.9519C13.6528 17.2639 13.3061 17.4199 12.9248 17.4199C12.5434 17.4199 12.1968 17.2639 11.8848 16.9519L5.80077 11.1279C5.52343 10.8506 5.38477 10.4953 5.38477 10.0619C5.38477 9.62859 5.52343 9.27326 5.80077 8.99592C6.45943 8.33726 7.13543 8.33726 7.82877 8.99592L12.9248 13.8839L18.0208 8.99592C18.7141 8.33726 19.3901 8.33726 20.0488 8.99592C20.3261 9.27326 20.4648 9.62859 20.4648 10.0619C20.4648 10.4953 20.3261 10.8506 20.0488 11.1279Z" fill="#21293C"/>
</g>
<defs>
<clipPath id="clip0_376_2920">
<rect width="26" height="26" fill="white"/>
</clipPath>
</defs>
</svg>
