<svg width="16" height="10" viewBox="0 0 16 10" fill="none" xmlns="http://www.w3.org/2000/svg">
<path d="M15.4911 6.82008C15.7685 7.09741 15.9071 7.45275 15.9071 7.88608C15.9071 8.31941 15.7685 8.67474 15.4911 8.95208C14.8325 9.61074 14.1565 9.61074 13.4631 8.95208L8.36715 4.06408L3.27115 8.95208C2.57782 9.61074 1.90182 9.61074 1.24315 8.95208C0.965815 8.67474 0.827148 8.31941 0.827148 7.88608C0.827148 7.45275 0.965815 7.09741 1.24315 6.82008L7.32715 0.996078C7.60448 0.718745 7.95115 0.580078 8.36715 0.580078C8.78315 0.580078 9.12982 0.718745 9.40715 0.996078L15.4911 6.82008Z" fill="#21293C"/>
</svg>
