<svg width="26" height="26" viewBox="0 0 26 26" fill="none" xmlns="http://www.w3.org/2000/svg">
<g clip-path="url(#clip0_376_2884)">
<rect width="26" height="26" fill="white"/>
<path d="M20.0488 14.8203C20.3261 15.0976 20.4648 15.453 20.4648 15.8863C20.4648 16.3196 20.3261 16.675 20.0488 16.9523C19.3901 17.611 18.7141 17.611 18.0208 16.9523L12.9248 12.0643L7.82877 16.9523C7.13543 17.611 6.45943 17.611 5.80077 16.9523C5.52343 16.675 5.38477 16.3196 5.38477 15.8863C5.38477 15.453 5.52343 15.0976 5.80077 14.8203L11.8848 8.99629C12.1621 8.71896 12.5088 8.58029 12.9248 8.58029C13.3408 8.58029 13.6874 8.71896 13.9648 8.99629L20.0488 14.8203Z" fill="#21293C"/>
</g>
<defs>
<clipPath id="clip0_376_2884">
<rect width="26" height="26" fill="white"/>
</clipPath>
</defs>
</svg>
