<svg width="29" height="26" viewBox="0 0 29 26" fill="none" xmlns="http://www.w3.org/2000/svg">
<g clip-path="url(#clip0_376_2869)">
<rect width="27.7282" height="26" transform="translate(0.442383)" fill="white"/>
<path d="M20.4911 14.8203C20.7685 15.0976 20.9071 15.453 20.9071 15.8863C20.9071 16.3196 20.7685 16.675 20.4911 16.9523C19.8325 17.611 19.1565 17.611 18.4631 16.9523L13.3671 12.0643L8.27115 16.9523C7.57782 17.611 6.90182 17.611 6.24315 16.9523C5.96582 16.675 5.82715 16.3196 5.82715 15.8863C5.82715 15.453 5.96582 15.0976 6.24315 14.8203L12.3271 8.99629C12.6045 8.71896 12.9511 8.58029 13.3671 8.58029C13.7831 8.58029 14.1298 8.71896 14.4071 8.99629L20.4911 14.8203Z" fill="#21293C"/>
</g>
<defs>
<clipPath id="clip0_376_2869">
<rect width="27.7282" height="26" fill="white" transform="translate(0.442383)"/>
</clipPath>
</defs>
</svg>
