<svg width="16" height="9" viewBox="0 0 16 9" fill="none" xmlns="http://www.w3.org/2000/svg">
<path d="M15.0488 2.62795L8.96477 8.45195C8.65277 8.76395 8.3061 8.91995 7.92477 8.91995C7.54343 8.91995 7.19677 8.76395 6.88477 8.45195L0.800766 2.62795C0.523432 2.35062 0.384766 1.99529 0.384766 1.56195C0.384766 1.12862 0.523432 0.773286 0.800766 0.495953C1.45943 -0.162714 2.13543 -0.162714 2.82877 0.495953L7.92477 5.38395L13.0208 0.495953C13.7141 -0.162714 14.3901 -0.162714 15.0488 0.495953C15.3261 0.773286 15.4648 1.12862 15.4648 1.56195C15.4648 1.99529 15.3261 2.35062 15.0488 2.62795Z" fill="#21293C"/>
</svg>
