<svg width="26" height="26" viewBox="0 0 26 26" fill="none" xmlns="http://www.w3.org/2000/svg">
<g clip-path="url(#clip0_376_2862)">
<rect width="26" height="26" fill="white"/>
<path d="M19.0488 11.1279L12.9648 16.9519C12.6528 17.2639 12.3061 17.4199 11.9248 17.4199C11.5434 17.4199 11.1968 17.2639 10.8848 16.9519L4.80077 11.1279C4.52343 10.8506 4.38477 10.4953 4.38477 10.0619C4.38477 9.62859 4.52343 9.27326 4.80077 8.99592C5.45943 8.33726 6.13543 8.33726 6.82877 8.99592L11.9248 13.8839L17.0208 8.99592C17.7141 8.33726 18.3901 8.33726 19.0488 8.99592C19.3261 9.27326 19.4648 9.62859 19.4648 10.0619C19.4648 10.4953 19.3261 10.8506 19.0488 11.1279Z" fill="#21293C"/>
</g>
<defs>
<clipPath id="clip0_376_2862">
<rect width="26" height="26" fill="white"/>
</clipPath>
</defs>
</svg>
