<svg width="981" height="983" viewBox="0 0 981 983" fill="none" xmlns="http://www.w3.org/2000/svg">
<g style="mix-blend-mode:multiply" filter="url(#filter0_d_399_43)">
<path fill-rule="evenodd" clip-rule="evenodd" d="M464.13 113.589C529.895 135.975 598.504 135.967 659.258 172.127C724.348 210.867 777.927 264.987 825.27 328.534C887.049 411.457 986.95 489.922 976.199 597.545C965.512 704.515 848.99 749.805 776.224 819.48C714.998 878.107 662.684 989.441 583.625 973.445C492.858 955.08 492.265 775.503 404.317 744.232C319.495 714.073 234.006 857.729 151.654 819.853C77.8693 785.917 73.1765 667.752 50.6353 581.562C24.7001 482.395 -11.0303 381.458 10.7341 281.023C34.4079 171.778 80.3015 42.3146 175.076 7.31531C273.377 -28.9863 365.105 79.8816 464.13 113.589Z" fill="#E2CFFB"/>
</g>
<defs>
<filter id="filter0_d_399_43" x="0" y="0" width="981" height="983" filterUnits="userSpaceOnUse" color-interpolation-filters="sRGB">
<feFlood flood-opacity="0" result="BackgroundImageFix"/>
<feColorMatrix in="SourceAlpha" type="matrix" values="0 0 0 0 0 0 0 0 0 0 0 0 0 0 0 0 0 0 127 0" result="hardAlpha"/>
<feOffset dy="4"/>
<feGaussianBlur stdDeviation="2"/>
<feComposite in2="hardAlpha" operator="out"/>
<feColorMatrix type="matrix" values="0 0 0 0 0 0 0 0 0 0 0 0 0 0 0 0 0 0 0.25 0"/>
<feBlend mode="normal" in2="BackgroundImageFix" result="effect1_dropShadow_399_43"/>
<feBlend mode="normal" in="SourceGraphic" in2="effect1_dropShadow_399_43" result="shape"/>
</filter>
</defs>
</svg>
