<svg width="42" height="42" viewBox="0 0 42 42" fill="none" xmlns="http://www.w3.org/2000/svg">
<path d="M10.5 0.823242C7.6125 0.823242 5.04 2.18412 3.0975 4.31419C1.2075 6.44425 0 9.34351 0 12.6569C0 15.9112 1.2075 18.8105 3.0975 20.9997L21 41.1762L38.9025 20.9997C40.7925 18.8696 42 15.9704 42 12.6569C42 9.40268 40.7925 6.50342 38.9025 4.31419C37.0125 2.18412 34.44 0.823242 31.5 0.823242C28.6125 0.823242 26.04 2.18412 24.0975 4.31419C22.2075 6.44425 21 7.39216 21 10.7056C21 7.45132 19.7925 6.50342 17.9025 4.31419C16.0125 2.18412 13.44 0.823242 10.5 0.823242Z" fill="black" fill-opacity="0.2"/>
</svg>
